<?xml version="1.0" encoding="UTF-8"?>
<svg id="_レイヤー_2" data-name="レイヤー 2" xmlns="http://www.w3.org/2000/svg" viewBox="0 0 645.7631288 98.6582558">
  <defs>
    <style>
      .cls-1 {
        fill: none;
        stroke: #fff;
        stroke-miterlimit: 10;
        stroke-width: 1.1211165px;
      }

      .cls-2 {
        fill: #fff;
      }

      .cls-2, .cls-3 {
        stroke-width: 0px;
      }

      .cls-3 {
        fill: #514100;
      }
    </style>
  </defs>
  <g id="gallery">
    <g>
      <rect class="cls-3" width="645.7631288" height="98.6582558"/>
      <rect class="cls-1" x="5.6055827" y="5.6055827" width="634.5519634" height="87.4470904"/>
      <g>
        <g>
          <path class="cls-2" d="m78.714084,40.0507812c-.3496094.8076172-.753418,1.6679688-1.7216797,3.3359375l.6723633.3232422c.1074219.0537109.3764648.1875.3764648.4033203,0,.1884766-.1611328.3222656-.2416992.4033203-.1884766.1611328-.3500977.3496094-.5649414.484375,0,1.2099609.0537109,9.7382812.0805664,10.5722656,0,.671875.1074219,3.9277344.1074219,4.2236328,0,.5917969,0,1.8554688-1.7485352,1.8554688-1.3178711,0-1.3178711-.6181641-1.3178711-1.3984375,0-.7529297.1611328-4.0625.1611328-4.734375.0537109-2.3681641.0268555-2.6904297.1079102-8.7167969-1.8295898,2.2597656-3.1474609,3.2011719-3.793457,3.6591797l-.1611328-.1347656c2.878418-4.5732422,5.2993164-10.6259766,5.5683594-13.5585938l3.3896484,1.8564453c.1616211.0810547.3764648.2421875.3764648.484375,0,.5380859-.6186523.7265625-1.2910156.9414062Zm16.0063477,19.9873047h-13.4238281c-1.9638672,0-2.5019531.1083984-2.9321289.1884766l-.4306641-.9951172c1.2641602.1074219,2.5556641.1611328,3.8466797.1611328h2.9326172v-8.2851562h-1.8833008c-1.9638672,0-2.5019531.1074219-2.9052734.1884766l-.4575195-.9951172c1.2915039.1074219,2.5556641.1611328,3.847168.1611328h1.3989258v-6.8867188h-2.878418c-1.9370117,0-2.4750977.1074219-2.9052734.1884766l-.4306641-.9960938c1.2641602.1083984,2.5556641.1621094,3.8198242.1621094h8.0976562l.9951172-1.7490234c.0805664-.1347656.215332-.4033203.4306641-.4033203.1611328,0,.3764648.2148438.4838867.2958984l2.2060547,1.8027344c.1074219.0800781.2958984.2412109.2958984.4033203,0,.2685547-.269043.2958984-.4306641.2958984h-6.8325195v6.8867188h2.0712891l.9951172-1.6142578c.0810547-.1347656.215332-.3496094.4038086-.3496094.1879883,0,.4033203.2148438.5107422.2958984l2.1254883,1.6142578c.1074219.0800781.2958984.2148438.2958984.4033203,0,.2685547-.2421875.2958984-.4306641.2958984h-5.9716797v8.2851562h3.1743164l1.2373047-1.8017578c.0805664-.1347656.1884766-.3496094.4033203-.3496094.1884766,0,.3500977.1337891.5112305.2958984l1.9638672,1.8017578c.1616211.1347656.269043.2421875.269043.4033203,0,.2695312-.2421875.2958984-.4033203.2958984Zm-8.3398438-17.5927734c-.8876953,0-1.0219727-.3496094-1.5869141-1.9912109-.6992188-2.0439453-1.3720703-2.8242188-1.7216797-3.2275391l.1616211-.1621094c1.7753906.4580078,4.8149414,1.4804688,4.8149414,3.6318359,0,1.1035156-.8066406,1.7490234-1.6679688,1.7490234Z"/>
          <path class="cls-2" d="m107.8537324,44.2470703h-3.3896484c0,1.7216797-.0268555,11.1376953-.0268555,12.5097656,0,.5644531.0805664,3.0126953.0537109,3.5234375-.0268555.9960938-.8876953,1.3183594-1.7216797,1.3183594-1.2104492,0-1.2104492-.5917969-1.2104492-1.15625,0-.5380859.1074219-2.8789062.1342773-3.3632812.1347656-4.5458984.1884766-10.0068359.215332-12.8320312-1.4257812,0-2.125.0546875-2.9858398.1884766l-.4306641-.9951172c.96875.1347656,2.4213867.1611328,3.4165039.1611328,0-1.7753906.0537109-5.21875-.5917969-6.7246094l3.7929688.8603516c.215332.0537109.4038086.1884766.4038086.3769531,0,.2148438-.1079102.3759766-1.0224609.8066406v4.6806641h.3496094l.9150391-1.4521484c.1611328-.2695312.2685547-.3496094.4033203-.3496094.1616211,0,.2958984.0800781.484375.2958984l1.371582,1.4794922c.215332.2148438.2421875.2958984.2421875.4033203,0,.2421875-.2148438.2685547-.4033203.2685547Zm6.3486328,8.5546875c-.1074219.5917969-.4033203,3.2558594-.484375,3.7929688-.4033203,2.2871094-.9682617,4.7080078-4.0083008,4.8427734-.0268555-.8613281-.0805664-2.2597656-1.6406438-3.3896484-1.4526179,2.1523438-2.7709773,2.8515625-3.3896296,3.1748047l-.1347656-.1884766c2.2060547-2.5019531,2.9326172-5.7841797,3.2011719-7.2363281.1616211-.9150391.269043-1.7490234.2963867-2.0449219-.96875.0273438-1.4257812.0537109-2.2866211.1884766l-.4306641-.9951172c.4306641.0537109,1.1567383.1337891,2.7709961.1611328.1074219-1.8027344-.0537109-2.7978516-.2421875-3.5244141l3.2548828.8339844c.1616211.0537109.3769531.1347656.3769531.3769531,0,.2148438-.0810547.2685547-.7802734.7265625-.0537109.4833984-.0805664.7255859-.1884766,1.5869141h1.0761719l.6455078-.8613281c.1347656-.1875.269043-.3222656.4038086-.3222656.1074219,0,.2685547.1347656.4570312.2685547l1.6411133,1.3457031c.1611328.1337891.2421875.2958984.2421875.4570312,0,.2685547-.2958984.484375-.7802734.8066406Zm8.4199219-.0800781c-.3496094,6.1328125-.7529297,8.6347656-4.6269531,8.9042969-.2421875-1.6953125-.5380859-2.3671875-1.5869141-3.1748047-1.3989258,1.8828125-3.0400391,2.7167969-3.8203125,3.1210938l-.1342773-.1884766c1.2910156-1.1035156,3.4433594-4.0888672,4.1157227-9.5771484-.5112305.0273438-.7260742.0537109-1.1030273.1347656l-.4570312-.96875c.4301758.0537109.8876953.0810547,1.6137695.1074219.1079102-1.7753906-.1074219-2.9052734-.2416992-3.6855469-.1884766.0273438-.269043.0273438-.7802734.0546875-.0268555-1.1035156-.2958984-2.3945312-1.7216797-3.4169922l.0537109-.1884766c1.2641602.3232422,2.3134766.4580078,2.5288086.4580078,1.0761719,0,1.3989258-1.4257812,1.7485352-3.8740234h-3.1743164c-.7802734,2.5283203-2.4750977,5.8916016-8.1240234,7.2626953l-.1079102-.2148438c2.6630859-1.4257812,4.7080078-3.6318359,5.4609375-7.0478516h-.9951172c-1.8564453,0-2.3945312.0800781-2.9052734.1884766l-.4306641-.9960938c1.2646484.1083984,2.5556641.1621094,3.8198242.1621094h.6459961c.1342773-.8613281.1611328-1.5068359.1611328-1.8027344,0-.7529297-.0805664-.96875-.2422064-1.3447266l3.7124213.8603516c.1616211.0273438.3227539.1074219.3227539.2958984,0,.2958984-.2416992.4033203-.8876953.6728516-.0805664.4033203-.1074219.6455078-.2416992,1.3183594h2.7436523l.6723633-.9414062c.1347656-.1884766.2421875-.2695312.4038086-.2695312.1342773,0,.269043.0537109.5380859.2695312l1.909668,1.4794922c.1884766.1611328.2958984.2958984.2958984.4570312,0,.4306641-.7529297.7529297-.9951172.8603516-.8608398,4.7353516-2.2329102,5.4072266-4.0620117,5.703125l2.878418.7539062c.3764648.1074219.5380859.2421875.5380859.4570312,0,.2421875-.1079102.4570312-1.0224609.8066406-.0537109.8076172-.1074219,1.1835938-.1879883,1.7753906h1.0756836l.753418-.9951172c.0805664-.1074219.215332-.2148438.3496094-.2148438.1347656,0,.2421875.0800781.4033203.1884766l1.7216797,1.3447266c.1347656.1074219.269043.2421875.269043.4033203,0,.2695312-.4301758.5654297-.8876953.8613281Zm-12.2128906-.96875c-.5380859,2.8242188-1.4526367,4.8964844-2.2329102,6.0800781.1884766.0537109,1.4257812.3496094,2.0712891.3496094.5649414,0,.8071289-.2421875.9956055-1.2373047.3227539-1.7216797.4838867-3.4433594.5649414-5.1923828h-1.3989258Zm8.4467773.0273438c-.5649414,3.4697266-1.3447266,5.1376953-2.1787109,6.3212891.6186523.1347656,1.3447266.2421875,1.9365234.2421875s.9150391-.1884766,1.1030273-1.1298828c.3227539-1.8027344.4038086-3.6318359.4575195-5.4335938h-1.3183594Z"/>
          <path class="cls-2" d="m138.4201386,59.1503906l-.0541992-.1875c3.9545898-1.5341797,8.4741211-4.7080078,8.4741211-10.5185547,0-3.9013672-2.4482422-7.2099609-7.6669922-7.2099609-.7529297,0-.9682617.0537109-1.2910156.1621094,2.394043,1.2636719,2.394043,2.4208984,2.394043,2.7705078,0,.96875-2.340332,5.9453125-4.0888672,8.796875-2.0712891,3.3896484-3.09375,4.2773438-4.0351562,4.2773438-.8608398,0-1.1030273-.4042969-1.9370117-1.6953125-.3496094-.5380859-.3764648-.5644531-1.0493164-1.1298828-.8339844-.6992188-1.2104492-1.9902344-1.2104492-3.2548828,0-5.9453125,5.1113281-10.8408203,11.8364258-10.8408203,5.1923828,0,10.2495117,3.0390625,10.2495117,8.7958984,0,8.3935547-9.4692383,9.7382812-11.6210938,10.0341797Zm-1.4526367-17.5927734c-3.09375.9140625-6.6987305,4.7880859-6.6987305,9.2539062,0,1.1025391.5112305,3.7392578,1.6411133,3.7392578,1.1030273,0,2.4208984-2.7441406,3.5239258-5.0839844.6455078-1.3183594,2.2060547-4.5732422,2.2060547-6.1611328,0-.9140625-.4575195-1.5058594-.6723633-1.7480469Z"/>
          <path class="cls-2" d="m170.0070527,41.2880859l.8339844-1.2099609c.1611328-.2421875.269043-.3769531.4033203-.3769531.1347656,0,.3227539.1611328.3764648.2148438l1.9638672,1.4804688c.3227539.2412109.4306641.3496094.4306641.5371094,0,.2421875-.1079102.2958984-.96875.9960938-.0805664.8066406-.0805664,1.8828125-.0805664,2.4208984,0,6.2138672.1616211,10.6259766.2421875,12.9658203.0268555.5927734.0268555,1.0761719.0268555,1.1298828,0,1.1035156-.9951172,1.6416016-1.9907227,1.6416016-.8071289,0-1.1567383-.3769531-1.1567383-1.0761719,0-.1074219.0268555-.5380859.0537109-.7802734h-10.8950195c.0268555.1611328.0268555.4033203.0268555.5654297,0,.9677734-.9682617,1.5595703-2.0712891,1.5595703-.9951172,0-.9951172-.7529297-.9951172-1.2099609,0-.0537109,0-.5117188.0805664-4.7617188.0268555-1.1298828.0537109-6.3759766.0537109-7.3173828,0-2.3134766,0-6.1875-.3764648-8.2050781l3.5239258,1.4257812h2.7978516c.6455078-3.09375.6723633-3.2275391.7802734-4.7607422l3.7124023,1.4794922c.1879883.0800781.4033203.2148438.4033203.4296875,0,.2958984-.2421875.3496094-1.3720703.7001953-.4033203.3222656-2.0712891,1.8554688-2.4208984,2.1513672h6.6176758Zm-10.7607422.6455078v4.9775391h10.921875v-4.9775391h-10.921875Zm0,5.6230469v4.9765625h10.921875v-4.9765625h-10.921875Zm0,5.6220703v5.4072266h10.921875v-5.4072266h-10.921875Z"/>
          <path class="cls-2" d="m200.6799043,44.7587891v8.6621094c0,.9414062.1616211,5.0302734.1616211,5.8642578,0,.2958984,0,.8339844-.4575195,1.2109375-.484375.4306641-1.1298828.5644531-1.5874023.5644531-.9682617,0-1.1025602-.6455078-1.0219727-1.7753906h-14.4731445c.0273438.4306641.0541992,1.9912109-1.855957,1.9912109-1.2104492,0-1.2104492-.7265625-1.2104492-1.1572266,0-.3769531.1074219-2.0439453.1342773-2.3945312.1347656-3.2548828.1347656-8.7421875.1347656-9.8994141,0-4.3037109-.0810547-4.9228516-.2958984-6.1064453l3.6313477,1.453125h5.2192383c-.0273438-.5117188-.0273438-2.8515625-.0541992-3.3095703-.0537109-.4570312-.1342773-1.5332031-.6455078-2.9853516l4.1967773.8339844c.1342773.0263672.2958984.1611328.2958984.3496094,0,.1611328,0,.3222656-.9418945.9677734v4.1435547h5.703125l.8608398-1.3183594c.2421875-.3769531.3769531-.3769531.484375-.3769531.1616211,0,.3496094.1347656.484375.2421875l2.0444336,1.5068359c.1611328.1074219.2421875.2148438.2421875.3759766,0,.3769531-.8339844.9960938-1.0493164,1.1572266Zm-11.6210938-.9414062h-5.7573242v6.8330078h5.7573242v-6.8330078Zm0,7.4785156h-5.7573242v7.34375h5.7573242v-7.34375Zm8.7426758-7.4785156h-5.8916016v6.8330078h5.8916016v-6.8330078Zm0,7.4785156h-5.8916016v7.34375h5.8916016v-7.34375Z"/>
          <path class="cls-2" d="m217.1764863,42.6875h-7.0478516c-1.6411133,0-2.2329102.0537109-2.9057617.1884766l-.4301758-.9960938c1.6142578.1347656,3.5239258.1621094,3.8198242.1621094h2.878418l1.0224609-1.5068359c.1342773-.2148438.2958984-.3496094.4301758-.3496094.1347656,0,.269043.1074219.484375.2958984l1.8833008,1.5068359c.1342773.1074219.2685547.2412109.2685547.4033203,0,.2685547-.2416992.2958984-.4033203.2958984Zm-1.1030273,11.0566406v2.3398438c0,.6992188.1079102,1.8291016.1079102,2.5292969,0,1.3710938-1.5874023,1.5332031-1.8027344,1.5332031-.8608398,0-.8608398-.7539062-.8339844-1.2919922h-2.878418c-.0268555,1.453125-.0537109,2.5830078-1.640625,2.5830078-.8339844,0-1.0761719-.3769531-1.0761719-.8613281,0-.1611328.0537109-.5380859.0537109-.6992188.1074219-1.5058594.1347656-3.6318359.1347656-4.0888672,0-2.8779297-.1347656-4.0078125-.215332-4.8154297l2.7978516,1.2373047h2.5551758l.753418-.9951172c.1884766-.2685547.3227539-.4570312.5112305-.4570312.1611328,0,.3496094.1611328.5380859.2958984l1.6679688,1.15625c.1879883.1347656.2958984.2695312.2958984.4306641,0,.2695312-.1079102.3496094-.96875,1.1035156Zm-.215332-7.6943359h-4.519043c-1.6411133,0-2.2329102.0537109-2.9052734.1884766l-.4306641-.9951172c1.6411133.1337891,3.5239258.1611328,3.8198242.1611328h.699707l.9414062-1.3720703c.1079102-.1611328.269043-.3496094.4038086-.3496094.1611328,0,.2958984.1347656.5107422.2958984l1.6142578,1.3720703c.1342773.1074219.269043.2148438.269043.4033203,0,.2421875-.215332.2958984-.4038086.2958984Zm.215332-6.6445312h-4.7075195c-1.6411133,0-2.2329102.0537109-2.9052734.1611328l-.4306641-.9677734c1.6142578.1337891,3.5239258.1611328,3.8203125.1611328h.8066406l.96875-1.453125c.1074219-.1337891.2421875-.3496094.4033203-.3496094.1616211,0,.3764648.1884766.5112305.2958984l1.6679688,1.453125c.1342773.1347656.269043.2148438.269043.4033203,0,.2421875-.215332.2958984-.4038086.2958984Zm-.0805664,9.8994141h-4.5463867c-1.6411133,0-2.2329102.0537109-2.9052734.1884766l-.4575195-.9951172c1.6411133.1347656,3.5512695.1611328,3.847168.1611328h.6992188l.8876953-1.3447266c.1079102-.1611328.269043-.3232422.4038086-.3232422.1611328,0,.3227539.1347656.5107422.2695312l1.6948242,1.3447266c.1616211.1074219.269043.2421875.269043.4033203,0,.2695312-.2421875.2958984-.4033203.2958984Zm-2.4482422,3.5507812h-2.9052734v5.3535156h2.9052734v-5.3535156Zm15.2802734,8.3671875c-3.2822266-1.2382812-4.9770508-2.7714844-5.9990234-3.8203125-3.8203125,3.2285156-7.3442383,3.7392578-8.4741211,3.9277344l-.0537109-.1884766c3.4970703-1.7490234,5.5957031-3.6582031,7.1557617-5.4345703-1.6142578-2.4208984-2.0175781-4.6269531-2.1791992-5.7294922-.6992188.0263672-1.0488281.0810547-1.4257812.1611328l-.4301758-.9951172c1.6142578.1347656,3.5239258.1611328,3.8198242.1611328h3.6318359l.8071289-.9140625c.1879883-.2158203.3227539-.3232422.4838867-.3232422.1347656,0,.2958984.1347656.484375.2958984l1.9101562,1.5869141c.1074219.1083984.3227539.2958984.3227539.484375,0,.3769531-.4306641.5380859-1.3183594.8876953-.8608398,1.7753906-1.7485352,3.1210938-3.0126953,4.4394531,1.2910156.8066406,3.2817383,1.7753906,6.6982422,2.2861328v.2148438c-.4570312.2421875-1.6679688.8613281-2.4208984,2.9599609Zm1.3989258-14.7158203c-.6459961.4042969-1.3183594.4580078-2.7978516.4580078-1.8564453,0-3.2011719,0-3.3896484-1.4794922-.0537109-.5654297-.0805664-5.0849609-.0805664-5.8916016v-.2958984h-2.1523438c-.1879883,4.3310547-1.3178711,7.1826172-4.8422852,9.0117188l-.1342773-.1347656c2.0444336-2.4472656,2.2866211-5.5683594,2.2866211-7.6396484,0-1.4794922-.1347656-2.5019531-.215332-3.1748047l2.9858398,1.2919922h1.9370117l.8339844-.96875c.1347656-.1347656.2958984-.3232422.4575195-.3232422.1611328,0,.3227539.1347656.4838867.2695312l1.5605469,1.2373047c.1611328.1074219.3227539.2695312.3227539.484375,0,.2421875-.0805664.3222656-.8876953.8876953,0,.6992188-.0268555,3.3623047-.0268555,3.5507812.0268555.2158203.0537109.4570312.5112305.4570312.9145508,0,1.1025391-.1337891,1.2373047-.2412109.4033203-.3505859.5649414-.9423828,1.1835938-3.2822266h.1884766c.0805664.7265625.3496094,2.8242188.6186523,3.1474609.0537109.0800781.5917969.3759766.7260742.4570312.1616211.0810547.2421875.2421875.2421875.484375,0,.4033203-.3227539,1.2646484-1.0488281,1.6943359Zm-10.3842773,3.4433594c.8608398,2.609375,2.2329102,3.9013672,2.7441406,4.3583984,1.5063477-2.125,1.9101562-3.4160156,2.2060547-4.3583984h-4.9501953Z"/>
          <path class="cls-2" d="m247.0964082,42.9560547h-8.9042969c-1.6679688,0-2.2329102.0537109-2.9321289.1884766l-.4306641-.9951172c1.6411133.1347656,3.5512695.1611328,3.847168.1611328h5.0302734l.9956055-1.5068359c.0805664-.1337891.2685547-.3496094.4033203-.3496094.1884766,0,.3496094.1884766.484375.2958984l1.6674805,1.5068359c.1347656.1347656.269043.2421875.269043.4033203,0,.2695312-.2416992.2958984-.4301758.2958984Zm-1.9638672,3.2548828h-5.434082c-1.6411133,0-2.2329102.0537109-2.9052734.1884766l-.4306641-.9951172c1.6411133.1347656,3.5244141.1611328,3.8203125.1611328h1.5600586l1.0224609-1.4794922c.1342773-.1884766.215332-.3222656.4033203-.3222656.1616211,0,.4038086.1611328.5112305.2685547l1.6142578,1.4794922c.1342773.1074219.269043.2421875.269043.4033203,0,.2695312-.2421875.2958984-.4306641.2958984Zm-.0805664-6.5097656h-5.3266602c-1.6411133,0-2.2329102.0537109-2.9052734.1611328l-.4301758-.9677734c1.640625.1337891,3.5239258.1611328,3.8198242.1611328h1.5600586l.96875-1.4794922c.1879883-.2695312.3227539-.3232422.4301758-.3232422.1079102,0,.3496094.1347656.484375.2695312l1.5332031,1.4794922c.1884766.1611328.269043.2421875.269043.4033203,0,.2421875-.215332.2958984-.4033203.2958984Zm.2958984,9.765625h-5.6225586c-1.6411133,0-2.2329102.0537109-2.9052734.1611328l-.4301758-.96875c1.640625.1347656,3.5239258.1611328,3.8198242.1611328h1.5869141l.96875-1.4257812c.0805664-.1074219.215332-.3222656.4033203-.3222656.1884766,0,.2958984.1074219.484375.2685547l1.8291016,1.4257812c.1616211.1083984.269043.2421875.269043.4042969,0,.2412109-.215332.2958984-.4033203.2958984Zm.4570312,4.25c0,1.0224609-.0268555,1.9902344.0268555,3.1201172,0,.3232422.0810547,1.6416016.0810547,1.9375,0,1.3183594-1.237793,1.5595703-1.8027344,1.5595703-.9951172,0-.9682617-.4833984-.9145508-1.5332031h-3.9272461c0,.1347656.0268555.7802734.0268555.9150391,0,.484375-.0810547,1.6142578-1.8027344,1.6142578-.5917969,0-1.0219727-.1884766-1.0219727-.8076172,0-.2148438.0805664-1.0761719.0805664-1.2636719.0537109-.9150391.0537109-1.9912109.0537109-2.7978516,0-1.8564453,0-3.5507812-.2148438-5.3808594l2.9858398,1.2382812h3.5776367l.8339844-1.1298828c.1079102-.1621094.269043-.3769531.4575195-.3769531.1342773,0,.269043.0537109.5917969.3496094l1.5332031,1.3183594c.1347656.1347656.2958984.2958984.2958984.4570312,0,.4033203-.5917969.6728516-.8608398.7802734Zm-2.609375-.7529297h-3.9545898v5.1914062h3.9545898v-5.1914062Zm16.1679688-6.6992188h-5.3803711v6.9677734c0,1.0224609.215332,5.5683594.215332,6.5644531,0,1.8291016-1.8027344,1.8291016-2.0444336,1.8291016-1.0493164,0-1.0493164-.6992188-1.0493164-1.1298828,0-1.9912109.1342773-5.1923828.1611328-7.1826172.0268555-2.0986328,0-3.0673828.0268555-7.0488281h-1.5063477c-1.640625,0-2.2329102.0546875-2.9052734.1884766l-.4570312-.9951172c1.640625.1347656,3.5507812.1611328,3.8466797.1611328h1.0219727c-.0268555-2.0175781-.0537109-4.3847656-.1611328-6.0527344-.1074219-1.4521484-.269043-2.0976562-.4306641-2.7705078l3.9008789.8339844c.1884766.0537109.5380859.1347656.5380859.484375,0,.4033203-.5112305.6455078-1.1030273.9140625-.0537109,1.0498047-.0537109,5.6494141-.0537109,6.5908203h1.5063477l1.1567383-1.7480469c.0537109-.0810547.2421875-.3496094.4306641-.3496094.1611328,0,.4033203.2148438.4838867.2958984l1.9370117,1.7480469c.1884766.1621094.269043.2421875.269043.4033203,0,.2695312-.215332.2958984-.4033203.2958984Z"/>
          <path class="cls-2" d="m274.2189668,59.1503906l-.0541992-.1875c3.9545898-1.5341797,8.4741211-4.7080078,8.4741211-10.5185547,0-3.9013672-2.4482422-7.2099609-7.6669922-7.2099609-.7529297,0-.9682617.0537109-1.2910156.1621094,2.394043,1.2636719,2.394043,2.4208984,2.394043,2.7705078,0,.96875-2.340332,5.9453125-4.0888672,8.796875-2.0712891,3.3896484-3.09375,4.2773438-4.0351562,4.2773438-.8608398,0-1.1030273-.4042969-1.9370117-1.6953125-.3496094-.5380859-.3764648-.5644531-1.0493164-1.1298828-.8339844-.6992188-1.2104492-1.9902344-1.2104492-3.2548828,0-5.9453125,5.1113281-10.8408203,11.8364258-10.8408203,5.1923828,0,10.2495117,3.0390625,10.2495117,8.7958984,0,8.3935547-9.4692383,9.7382812-11.6210938,10.0341797Zm-1.4526367-17.5927734c-3.09375.9140625-6.6987305,4.7880859-6.6987305,9.2539062,0,1.1025391.5112305,3.7392578,1.6411133,3.7392578,1.1030273,0,2.4208984-2.7441406,3.5239258-5.0839844.6455078-1.3183594,2.2060547-4.5732422,2.2060547-6.1611328,0-.9140625-.4575195-1.5058594-.6723633-1.7480469Z"/>
          <path class="cls-2" d="m312.0207246,59.2851562c-4.6811523-2.6630859-8.3662109-8.2050781-9.2001953-13.9345703-.4575195.3496094-1.184082.8603516-2.5288086,1.6142578,1.9907227,1.5332031,4.5195312,4.6533203,4.5195312,9.0654297,0,5.1376953-3.309082,5.3798828-5.0576172,5.5146484-.1616211-1.7480469-.9414062-2.4208984-2.5019531-3.3359375l.0537109-.2148438c.6728516.1884766,1.5874023.4570312,2.878418.4570312.8071289,0,2.1523438,0,2.1523438-3.3896484,0-.7529297-.0805664-1.3447266-.1347656-1.6943359-3.4702148,3.2011719-7.5053711,5.7832031-12.0786133,6.8056641l-.0537344-.1884766c3.3896719-1.7216797,8.9580312-6.2675781,11.4331289-9.4150391-.1342773-.3232422-.1884766-.484375-.3227539-.8066406-2.5825195,2.2324219-6.8061523,4.5185547-11.2714844,5.1914062v-.1884766c4.0083008-2.0712891,8.1508789-5.0029297,10.1147461-7.1826172-.1079102-.1337891-.1347656-.1884766-.2421875-.3222656-3.3896484,1.7753906-7.1020508,3.2011719-9.8725586,3.2011719l.0268555-.1347656c2.9858398-.9150391,8.043457-4.2773438,9.8725586-5.9179688h-1.8022461c-1.6142578,0-2.1254883.0800781-2.824707.1884766l-.4306641-.96875c1.5874023.1347656,3.2285156.1347656,3.7397461.1347656h6.5366211l1.2646484-1.5341797c.1342773-.1611328.269043-.3222656.4301758-.3222656.1616211,0,.3769531.1611328.5112305.2958984l1.7753906,1.5068359c.0805664.0800781.1347656.1337891.1884766.1875.2958984-.6181641.8071289-1.9902344,1.0488281-3.09375h-16.0327148c.1074219,1.9375-.8339844,3.7666016-2.2060547,3.7666016-.5380859,0-1.3183594-.3769531-1.3183594-1.2910156,0-.6728516.1079102-.7265625,1.4257812-1.8291016.1347656-.1083984,1.2109375-1.0224609,1.5605469-2.4482422h.1611328c.1616211.5107422.215332.7529297.2958984,1.15625h7.1020508c-.0537109-2.0712891-.1074219-2.4746094-.484375-3.3896484l3.362793.5917969c.269043.0546875.5380859.1347656.5380859.4042969,0,.2421875-.1616211.4296875-.8876953.8603516,0,.2421875-.0268555,1.3183594-.0268555,1.5332031h6.4023438l.6723633-.8876953c.1347656-.1611328.2421875-.3496094.4575195-.3496094s.484375.1884766.6186523.2958984l2.1791992,1.9101562c.215332.1884766.2958984.4033203.2958984.6455078,0,.5654297-.6455078.7529297-1.1567383.7529297-.1616211,0-.3227539-.0263672-.8876953-.1074219-.9956055.5654297-2.5556641,1.453125-2.9863281,1.6679688h-.0537109c.0268555.1611328,0,.3232422-.4033203.3232422h-4.7885742c-.2421875.2148438-.6723633.5380859-.7265625.5917969.215332.9140625.8339844,2.5556641,2.2597656,4.7070312,1.6679688-1.5595703,3.1206055-2.9316406,3.4433594-4.5185547l2.9326172,1.9638672c.1611328.1074219.3764648.3496094.3764648.5107422,0,.4033203-.1347656.4033203-1.4526367.4306641-2.1791992,1.0488281-3.3359375,1.640625-4.9228516,2.125,2.0444336,2.8242188,5.3798828,5.5419922,8.8774414,6.6708984v.2421875c-1.6948242.2958984-2.5019531,1.5068359-2.8515625,2.1523438Z"/>
          <path class="cls-2" d="m328.4899629,57.2138672c-1.3183594,0-2.2060547-.1074219-2.8251953-.1884766v-.1611328c6.8330078-.6455078,13.2353516-3.8740234,13.2353516-9.0117188,0-2.3408203-1.8554688-4.6269531-5.2451172-4.6269531-3.6591797,0-6.9951172,2.4746094-9.7119141,5.2724609-.9414062.96875-1.1293945,1.1835938-1.7753906,1.1835938-1.6679688,0-3.3354492-2.2597656-3.3354492-3.8203125,0-.7255859.3227539-1.3183594.5649414-1.8017578.4570312,1.0761719.8339844,1.9365234,2.0175781,1.9365234.4033203,0,.9682617-.1884766,1.3447266-.3496094,5.1650391-2.3134766,7.6396484-3.4169922,11.4335938-3.4169922,5.6220703,0,7.8544922,3.5244141,7.8544922,6.4833984,0,6.6445312-8.4462891,8.5009766-13.5576172,8.5009766Zm13.0195312-14.3378906c-.3759766,0-.4833984-.0810547-1.5869141-1.0224609-1.1298828-.96875-1.7480469-1.2910156-3.2011719-1.8564453.5644531-.1074219.9951172-.1347656,1.5332031-.1347656.7539062,0,4.2236328,0,4.2236328,2.0175781,0,.4306641-.2685547.9960938-.96875.9960938Zm1.8027344-2.4482422c-.3232422,0-.4306641-.0810547-1.3720703-.8613281-1.4257812-1.1835938-1.8828125-1.3984375-3.2548828-1.8828125.5380859-.0810547,1.0488281-.1884766,1.8564453-.1884766,1.7480469,0,3.7119141.484375,3.7119141,1.9638672,0,.5380859-.3496094.96875-.9414062.96875Z"/>
          <path class="cls-2" d="m358.4899629,61.7871094c-.6992188,0-.7529297-.0810547-2.609375-3.0664062-1.3447266-2.1523438-2.3671875-3.1474609-6.9130859-7.5595703-.9150391-.8876953-1.0488281-1.4257812-1.0488281-1.8564453,0-.4296875.0537109-1.0214844,1.2099609-2.2597656,4.3310547-4.5732422,6.6181641-6.9941406,6.6181641-8.1777344,0-.96875-1.1835938-1.640625-1.6142578-1.8564453.2958984-.1074219.484375-.1611328,1.1025391-.1611328,2.0712891,0,4.0888672,2.0175781,4.0888672,3.0126953,0,.7265625-.6455078,1.1298828-1.2636719,1.5605469-.8876953.5917969-5.2724609,4.1425781-7.6132812,6.6181641-.0810547.0800781-.5654297.5917969-.5654297,1.1298828,0,.4570312.2158203.7792969.8876953,1.2373047,2.2871094,1.6142578,5.9990234,4.5732422,8.0712891,6.6982422.5107422.5380859,1.1835938,1.5068359,1.1835938,2.6630859,0,1.1298828-.6464844,2.0175781-1.5341797,2.0175781Z"/>
          <path class="cls-2" d="m370.0612519,61.9755859c3.6582031-2.6367188,6.2412109-7.2636719,6.2412109-14.4726562,0-1.8300781-.1347656-6.0527344-1.8828125-6.0527344-2.0449219,0-4.3583984,5.8642578-4.3583984,8.8505859,0,.5107422.2695312,2.6894531.2695312,3.1464844,0,.8076172-.4306641,1.3183594-1.1298828,1.3183594-1.2382812,0-2.3945312-1.9101562-2.3945312-5.6494141,0-1.5058594.1347656-3.0390625.6181641-6.3212891.2421875-1.7216797.3505859-2.4746094.3505859-2.6630859,0-1.5068359-1.1572266-2.0449219-1.6953125-2.3134766.2958984-.1884766.9150391-.5917969,1.8027344-.5917969,1.0761719,0,2.9316406.9951172,2.9316406,2.2324219,0,.4306641-.1875.8613281-.6455078,1.7753906-.6455078,1.2910156-1.5869141,3.5507812-1.5869141,6.4833984,0,.2421875,0,1.1298828.1884766,1.1298828.1347656,0,.2685547-.3496094.3496094-.6191406.8876953-2.5556641,2.9863281-8.1503906,6.1601562-8.1503906,3.9814453,0,3.9814453,7.5048828,3.9814453,8.2050781,0,3.5234375-.4570312,10.5712891-9.0927734,13.8535156l-.1074219-.1611328Z"/>
        </g>
        <g>
          <path class="cls-2" d="m410.4001191,61.1669922c-.9414062,0-1.6474609-.2353516-1.6474609-.9414062,0-.6279297.3925781-1.2558594.7060547-1.6484375.4707031-.5488281,25.9755859-35.078125,28.4873047-38.53125.6269531-.8632812,1.0986328-1.4130859,1.6474609-1.4130859.5498047,0,.7851562.5498047.7851562,1.3339844,0,1.1777344-.0791016,7.4560547-.0791016,11.7714844v25.1914062h5.9648438c2.1181641,0,2.9033203-.8632812,3.2167969-.8632812.3925781,0,.3925781.5488281.3925781.9414062,0,.6279297-.5488281,2.5117188-.7060547,3.0605469-.3134766.8632812-.6279297,1.0986328-1.4121094,1.0986328h-7.4560547c0,2.5898438-.15625,8.6328125.1572266,12.0849609.3144531,3.1396484,1.4912109,4.3955078,5.6503906,4.5517578,1.0205078,0,1.8837891.1572266,1.8837891.7070312,0,.3916016-.3925781.5488281-1.2558594.5488281-4.3945312,0-9.4169922-.2353516-9.8876953-.2353516-.5498047,0-4.7871094.2353516-9.1035156.2353516-.8632812,0-1.2558594-.1572266-1.2558594-.5488281,0-.3144531.2353516-.6279297,1.3339844-.6279297,4.7089844,0,6.2001953-1.0205078,6.3564453-4.6308594.1572266-3.4521484.1572266-9.4951172.1572266-12.0849609h-23.9355469Zm23.9355469-32.0175781c-.078125,0-18.7558594,26.0537109-20.0898438,27.7802734h20.0898438v-27.7802734Z"/>
          <g>
            <path class="cls-2" d="m464.9108613,78.8212891c-.6279297-.3144531-.6728516-.4931641-.6728516-1.7041016,0-2.2421875.1796875-4.0361328.2246094-4.7539062.0449219-.4931641.1347656-.7177734.3583984-.7177734.2695312,0,.3144531.1347656.3144531.4931641,0,.4042969,0,1.0322266.1337891,1.6601562.6728516,3.3183594,3.6328125,4.5742188,6.6376953,4.5742188,4.3046875,0,6.4130859-3.0947266,6.4130859-5.9648438,0-3.0947266-1.3007812-4.8886719-5.1572266-8.0722656l-2.0185547-1.6591797c-4.7529297-3.9013672-5.8300781-6.6816406-5.8300781-9.7314453,0-4.7988281,3.5878906-8.0722656,9.2832031-8.0722656,1.7490234,0,3.0498047.1796875,4.1708984.4482422.8515625.1796875,1.2109375.2246094,1.5693359.2246094.359375,0,.4482422.0898438.4482422.3134766,0,.2246094-.1787109,1.7041016-.1787109,4.7539062,0,.7177734-.0898438,1.03125-.3144531,1.03125-.2685547,0-.3134766-.2236328-.3583984-.5830078-.0449219-.5380859-.3144531-1.7490234-.5830078-2.2421875-.2695312-.4931641-1.4794922-2.3769531-5.6054688-2.3769531-3.0947266,0-5.5166016,1.9287109-5.5166016,5.2021484,0,2.5566406,1.1660156,4.1708984,5.4716797,7.5341797l1.2558594.9863281c5.2910156,4.1708984,6.546875,6.9511719,6.546875,10.5390625,0,1.8388672-.7177734,5.2470703-3.8115234,7.4443359-1.9287109,1.3457031-4.3505859,1.8837891-6.7714844,1.8837891-2.1083984,0-4.1708984-.3144531-6.0097656-1.2109375Z"/>
            <path class="cls-2" d="m504.688205,66.3984375c0,4.3056641,0,7.8486328.2246094,9.7314453.1347656,1.3007812.4033203,2.2871094,1.7490234,2.4667969.6279297.0898438,1.6142578.1796875,2.0185547.1796875.2685547,0,.3583984.1347656.3583984.2685547,0,.2246094-.2246094.359375-.7177734.359375-2.4667969,0-5.2919922-.1347656-5.515625-.1347656-.2246094,0-3.0498047.1347656-4.3955078.1347656-.4931641,0-.7167969-.0898438-.7167969-.359375,0-.1337891.0888672-.2685547.3583984-.2685547.4033203,0,.9414062-.0898438,1.3457031-.1796875.8964844-.1796875,1.1210938-1.1660156,1.2998047-2.4667969.2246094-1.8828125.2246094-5.4257812.2246094-9.7314453v-18.9697266c-2.1972656.0449219-4.4394531.0449219-6.6367188.0898438-2.78125.0449219-3.8574219.359375-4.5742188,1.4355469-.4941406.7617188-.6279297,1.0761719-.7626953,1.3896484-.1347656.359375-.2695312.4492188-.4482422.4492188-.1347656,0-.2246094-.1347656-.2246094-.4042969,0-.4482422.8964844-4.3046875.9863281-4.6640625.0898438-.2685547.2695312-.8515625.4492188-.8515625.3134766,0,.7617188.4482422,1.9726562.5380859,1.3007812.1347656,3.0048828.2246094,3.5429688.2246094h16.8173828c1.4345703,0,2.4658203-.0898438,3.1835938-.2246094.6728516-.0898438,1.0761719-.2246094,1.2558594-.2246094.2246094,0,.2246094.2695312.2246094.5380859,0,1.3457031-.1347656,4.4404297-.1347656,4.9335938,0,.4033203-.1347656.5830078-.3144531.5830078-.2236328,0-.3134766-.1347656-.3583984-.7626953,0-.1796875-.0449219-.3134766-.0449219-.4931641-.1347656-1.3457031-1.2109375-2.3769531-5.515625-2.4667969-1.8837891-.0449219-3.7675781-.0449219-5.6513672-.0898438v18.9697266Z"/>
            <path class="cls-2" d="m528.3659394,58.5058594c0-6.9960938,0-8.2509766-.0898438-9.6865234-.0898438-1.5244141-.4482422-2.2421875-1.9277344-2.5556641-.3144531-.0898438-.8974609-.0898438-1.3007812-.1347656-.3144531-.0449219-.5830078-.0898438-.5830078-.2695312,0-.2685547.2236328-.3583984.7177734-.3583984,1.03125,0,2.2421875,0,5.0673828.1347656.3134766,0,9.2382812,0,10.2695312-.0449219.9863281-.0449219,1.7939453-.1347656,2.0625-.2695312.2695312-.1347656.359375-.1796875.4931641-.1796875.1347656,0,.1796875.1796875.1796875.4042969,0,.3134766-.2685547.8515625-.3583984,2.1074219-.0449219.6728516-.0898438,1.5244141-.1796875,2.6904297-.0449219.4492188-.1796875.7626953-.3583984.7626953-.2695312,0-.359375-.2246094-.359375-.5830078,0-.5830078-.0898438-1.1210938-.2236328-1.4794922-.3144531-1.0322266-1.2558594-1.4804688-3.2294922-1.6591797-.7617188-.0898438-5.6503906-.1347656-6.1435547-.1347656-.1796875,0-.2685547.1347656-.2685547.4482422v12.3769531c0,.3144531.0439453.4492188.2685547.4492188.5830078,0,6.0986328,0,7.1308594-.0898438,1.2109375-.0898438,1.7939453-.2246094,2.2421875-.7626953.2236328-.2685547.3583984-.4482422.5380859-.4482422.1347656,0,.2236328.0898438.2236328.3583984,0,.2695312-.2236328,1.03125-.3583984,2.5117188-.1347656,1.390625-.1347656,2.421875-.1796875,3.0498047-.0449219.4482422-.1337891.671875-.3134766.671875-.2695312,0-.3144531-.3583984-.3144531-.7167969,0-.4042969-.0439453-.8525391-.1787109-1.2558594-.1796875-.6728516-.7177734-1.3007812-2.3320312-1.4804688-1.2109375-.1337891-5.6503906-.2236328-6.4130859-.2236328-.2246094,0-.3134766.1347656-.3134766.3134766v3.9462891c0,1.5253906-.0449219,6.7275391,0,7.6689453.0888672,1.8388672.3583984,2.8251953,1.4794922,3.2734375.7626953.3144531,1.9736328.4042969,3.7216797.4042969,1.3457031,0,2.8261719-.0449219,4.0361328-.4042969,1.4355469-.4482422,1.9287109-1.3896484,2.2871094-3.3183594.0898438-.4931641.1796875-.6728516.4042969-.6728516.2685547,0,.2685547.359375.2685547.6728516,0,.359375-.3583984,3.4082031-.5830078,4.3505859-.3134766,1.1660156-.6728516,1.1660156-2.4208984,1.1660156-3.3193359,0-4.7988281-.0898438-6.5478516-.1347656-1.7939453-.0449219-3.8564453-.1347656-5.6054688-.1347656-1.0761719,0-2.1533203.1796875-3.3193359.1347656-.4931641,0-.7167969-.0898438-.7167969-.359375,0-.1337891.2236328-.2236328.4931641-.2685547.4482422-.0449219.7177734-.0449219,1.03125-.1347656.9414062-.2246094,1.5244141-.8515625,1.6142578-4.2158203.0449219-1.7490234.0898438-4.0361328.0898438-8.0273438v-7.8925781Z"/>
            <path class="cls-2" d="m556.976291,58.5058594c0-6.9960938,0-8.2509766-.0898438-9.6865234-.0898438-1.5244141-.4482422-2.2421875-1.9277344-2.5556641-.359375-.0898438-1.1210938-.1347656-1.5253906-.1347656-.1787109,0-.3583984-.0898438-.3583984-.2695312,0-.2685547.2246094-.3583984.7177734-.3583984,2.0175781,0,4.7080078.1347656,5.0673828.1347656.9863281,0,3.5878906-.1347656,5.6503906-.1347656,5.6054688,0,7.6240234,1.8837891,8.3408203,2.5556641.9873047.9423828,2.2431641,2.9599609,2.2431641,5.875,0,5.8300781-4.6640625,10.1347656-11.0322266,10.1347656-.2246094,0-.7177734,0-.9423828-.0439453-.2236328,0-.4931641-.0898438-.4931641-.3144531,0-.3583984.2695312-.4033203,1.2109375-.4033203,4.3505859,0,7.7587891-2.9599609,7.7587891-7.6689453,0-1.1210938-.1347656-4.1259766-2.5117188-6.546875-2.3769531-2.421875-5.1123047-2.2431641-6.1435547-2.2431641-.7626953,0-1.5253906.0898438-1.9287109.2695312-.2685547.0898438-.3583984.4033203-.3583984.8525391v18.4306641c0,4.3056641,0,7.8486328.2236328,9.7314453.1347656,1.3007812.4042969,2.2871094,1.7490234,2.4667969.6279297.0898438,1.6142578.1796875,2.0185547.1796875.2685547,0,.3583984.1347656.3583984.2685547,0,.2246094-.2236328.359375-.7177734.359375-2.4658203,0-5.2910156-.1347656-5.515625-.1347656-.1347656,0-2.9599609.1347656-4.3056641.1347656-.4931641,0-.7167969-.0898438-.7167969-.359375,0-.1337891.0898438-.2685547.3583984-.2685547.4033203,0,.9414062-.0898438,1.3457031-.1796875.8964844-.1796875,1.1210938-1.1660156,1.2998047-2.4667969.2246094-1.8828125.2246094-5.4257812.2246094-9.7314453v-7.8925781Z"/>
          </g>
        </g>
      </g>
    </g>
  </g>
</svg>