<?xml version="1.0" encoding="UTF-8"?>
<svg id="_レイヤー_2" data-name="レイヤー 2" xmlns="http://www.w3.org/2000/svg" viewBox="0 0 325 110">
  <defs>
    <style>
      .cls-1, .cls-2, .cls-3 {
        stroke-width: 0px;
      }

      .cls-2 {
        fill: none;
      }

      .cls-3 {
        fill: #514100;
      }
    </style>
  </defs>
  <g id="_フッター" data-name="フッター">
    <g>
      <g>
        <g>
          <path class="cls-1" d="m56.4325372,23.3788421h1.4488776c.4684579,0,1.0692072.078307,1.0692072.6385186v5.0389102s-1.6298143.5982063-4.5740396.5982063c-2.9426434,0-6.8765824-1.6203225-6.8765824-6.1081452,0-4.4850542,4.1039997-6.2309448,7.1352328-6.2309448,1.3683954,0,3.0743415.08068,3.0743415.8485238v1.4981161c-1.1516669-.9396842-1.6191361-1.1139255-3.3689816-1.1139255-1.7569643,0-4.8991324,1.1497174-4.8991324,4.8965896,0,3.7274932,4.213155,5.9533108,7.7209535,4.5445755v-2.8602114c0-.5999305-.0474588-1.7502131-.7298768-1.7502131Z"/>
          <path class="cls-1" d="m78.4358211,29.349159h3.7126624c-1.0227371-.3842185-1.4488776-1.6187405-1.7927562-2.5182825-.3456583-.8932141-3.0340015-7.4302682-3.3268619-8.327635-.3053183-.8949938-.7253287-.8949938-1.0755351-.8949938h-2.1257588c1.0207597.3434831.4583729,1.0692072.2883122,1.5805478-.16749.5090236-3.7530024,9.3986499-3.7530024,9.3986499-1.2412454-.3415056-4.3664074-4.9135676-4.3664074-4.9135676,4.143351-1.1922046,3.5111602-6.06563-.5499288-6.06563h-4.6564993c.9420572.2123781.8570268,1.1987302.8570268,1.966574v8.0705665c0,1.1077675-.3430876,1.4108828-.8973668,1.7037709h3.4136719c-.9377068-.4245585-.6877571-1.4087353-.6877571-1.877391v-8.7073054h1.8419947c.9869453,0,1.7077258,1.1967527,1.7077258,2.0088914,0,1.3155975-1.0288672,1.8313164-2.0470562,2.2133597-1.029065.3836253-.4710286,1.2388724,0,1.9199062.4682602.6853842,1.8330962,2.6111949,2.6515627,3.5515001.8085793.939882,1.5356877.8910389,1.9181265.8910389h3.0741438c-1.1900294-.3796704-.5517086-1.3150042-.3840208-1.7860328.1746088-.4734015.9402775-2.4805132.9402775-2.4805132h4.6125999s.5578386,1.4488776,1.0692072,2.736593c.5176964,1.2750597.1226019,1.4470979-.4243608,1.529953Zm-4.7866155-5.6331617l1.7498455-4.5696891,1.8823347,4.5696891h-3.6321802Z"/>
          <path class="cls-1" d="m115.8458135,29.349159h3.7235384c-1.0316357-.3842185-1.4552055-1.6187405-1.7945359-2.5182825-.3395282-.8932141-3.0347925-7.4302682-3.3312123-8.327635-.3019566-.8949938-.7217693-.8949938-1.0719756-.8949938h-2.1312956c1.0308447.3434831.4684579,1.0692072.2946401,1.5805478-.1700607.5090236-3.7593302,9.3986499-3.7593302,9.3986499-.238085.5580364-.5882914.5663417-.8085793.7617137h3.0761212c-1.196555-.3796704-.5562567-1.3150042-.3859982-1.7860328.1692697-.4734015.9438369-2.4805132.9438369-2.4805132h4.6108202s.5623868,1.4488776,1.0727666,2.736593c.5095889,1.2750597.1235906,1.4470979-.4387962,1.529953Zm-4.7773215-5.6331617l1.7498455-4.5696891,1.8777865,4.5696891h-3.627632Z"/>
          <path class="cls-1" d="m102.7072402,29.5676672c.4261405-.3859982.8121387-.6873893.8121387-2.0498524v-8.0725162c0-.6383208-.0492385-1.3705706-.8121387-1.6246729h3.2819738c-.3393304.3029453-.7451032.6826157-.7451032,1.5420155v8.1551736c0,.7281248-.1487042,1.7977275.7933529,2.0498524h-3.3302236Z"/>
          <path class="cls-1" d="m85.0104469,20.3387105s-.0421197,6.4474478-.0421197,7.1791043c0,.7281248.0868101,1.7977275,1.0262966,2.0498524h-3.1208116c.4352367-.3859982.7682393-.6873893.7682393-2.0498524,0-1.3638195.0913582-7.4379525.0913582-8.0725162,0-.6383208-.0913582-1.3705706-.8595975-1.6246729h2.3998333l7.1712224,9.0102507v-7.3406897c0-.4732038.0868101-1.3666157-.8955871-1.7081213h3.2014916c-.3796704.2926626-.9448256.4243608-.9448256,1.6632332v10.597352s-.891039.1635351-2.3399166-1.5845306c-1.4569852-1.7480658-6.4555833-8.1194095-6.4555833-8.1194095Z"/>
          <path class="cls-1" d="m105.422279,38.6609708c-9.3926898-7.917935-12.9880894-17.236047-.139608-29.9508525.4030043-.4028066.7844544-.1633374.4682602.1971518-5.6307889,6.43934-11.9127521,16.7371364-.1289297,29.3613747.1827164.1908239.1146921.6108343-.1997225.3923261Z"/>
          <g>
            <path class="cls-1" d="m131.7197266,26.2460329c0,1.46875.027832,1.6787109.8393555,1.7490234l.4477539.0419922c.0839844.0556641.0556515.3076172-.027832.3496094-.7978516-.027832-1.2734375-.0419922-1.8330078-.0419922-.5600586,0-1.0498047.0141602-1.9453125.0419922-.0839844-.0419922-.1118164-.2797852,0-.3496094l.5039062-.0419922c.7973633-.0703125.8676758-.2802734.8676758-1.7490234v-6.2548828c0-.4335938,0-.4477539-.4199219-.4477539h-.7695312c-.6015625,0-1.3710938.0283203-1.7211914.3500977-.3359375.3076172-.4755859.6157227-.6293945.965332-.1123047.0839844-.3081055.0141602-.3637695-.0981445.2236328-.6293945.4335938-1.5249023.5317383-2.0844727.0419922-.0283203.2236328-.0419922.265625,0,.0839844.4477539.5458984.4335938,1.1894531.4335938h5.6669922c.7553711,0,.8813477-.027832,1.0913086-.3916016.0698242-.0283203.2236328-.0141602.2519531.0415039-.1542969.5737305-.2519531,1.7075195-.2099609,2.1269531-.0561523.1118164-.2939453.1118164-.3637695.0283203-.0419922-.3500977-.1401367-.8676758-.3500977-1.0214844-.3217773-.2382812-.8535156-.3500977-1.6230469-.3500977h-.9931641c-.4199219,0-.4057617.0141602-.4057617.4760742v6.2265625Z"/>
            <path class="cls-1" d="m135.9970703,23.8251345c0-2.7983398,2.0991211-4.9394531,4.9814453-4.9394531,3.2319336,0,4.8554688,2.3369141,4.8554688,4.7993164,0,2.8266602-2.1552734,4.8837891-4.8554688,4.8837891-3.1064453,0-4.9814453-2.2250977-4.9814453-4.7436523Zm8.4375.2939453c0-2.3085938-1.0214844-4.7993164-3.6938477-4.7993164-1.4555664,0-3.3442383.9931641-3.3442383,4.0576172,0,2.0708008,1.0073242,4.7573242,3.7636719,4.7573242,1.6791992,0,3.2744141-1.2592773,3.2744141-4.015625Z"/>
            <path class="cls-1" d="m148.2636719,21.2084353c0-1.4692383-.027832-1.6928711-.8393555-1.7626953l-.3500977-.0283203c-.0839844-.0556641-.0556641-.3076172.0283203-.3496094.6855469.027832,1.1333008.0419922,1.7626953.0419922.5458984,0,1.0214844-.0141602,1.6230469-.0419922.0839844.0419922.1123047.2939453.0283203.3496094l-.2661133.0283203c-.8115234.0839844-.8393555.293457-.8393555,1.7626953v1.609375c0,.265625.027832.5317383.1816406.5317383.1259766,0,.2939453-.0839844.3920898-.1538086.1958008-.1679688.5595703-.5317383.7133789-.671875l1.5112305-1.4970703c.2661133-.2519531.9516602-.9658203,1.0913086-1.1616211.0703125-.0976562.0981445-.1679688.0981445-.2236328,0-.0561523-.0561523-.0981445-.237793-.1401367l-.3779297-.0839844c-.0981445-.0976562-.0839844-.2797852.027832-.3496094.4897461.027832,1.0493164.0419922,1.5390625.0419922s.9658203-.0141602,1.3852539-.0419922c.0981445.0698242.1123047.265625.0283203.3496094-.3637695.0283203-.909668.1679688-1.3012695.3920898-.3920898.2236328-1.175293.8813477-1.9589844,1.6230469l-1.2592773,1.1894531c-.1958008.1958008-.3217773.3217773-.3217773.4335938,0,.0981445.0839844.2099609.265625.4335938,1.3295898,1.5253906,2.4067383,2.784668,3.4980469,3.9321289.3359375.3354492.6435547.5175781,1.1196289.5737305l.3774414.0419922c.0981445.0698242.0703125.3076172-.027832.3496094-.3637695-.027832-.909668-.0419922-1.5668945-.0419922-.5737305,0-1.0634766.0141602-1.7070312.0419922-.0981445-.027832-.1401367-.2661133-.0561523-.3496094l.3217773-.0561523c.1958008-.027832.3359375-.0698242.3359375-.1401367,0-.0839844-.0981445-.1958008-.1958008-.3217773-.2661133-.3354492-.6298828-.7133789-1.1616211-1.3149414l-1.1191406-1.2592773c-.7978516-.8955078-1.0214844-1.1757812-1.3574219-1.1757812-.2099609,0-.237793.1821289-.237793.671875v1.8051758c0,1.46875.027832,1.6650391.8115234,1.7490234l.3779297.0419922c.0839844.0556641.0556641.3076172-.0283203.3496094-.6855469-.027832-1.1611328-.0419922-1.7070312-.0419922-.5737305,0-1.0493164.0141602-1.6230469.0419922-.0839844-.0419922-.1118164-.2519531-.027832-.3496094l.2797852-.0419922c.7416992-.1123047.7695312-.2802734.7695312-1.7490234v-5.0375977Z"/>
            <path class="cls-1" d="m156.0537109,23.8251345c0-2.7983398,2.0991211-4.9394531,4.9814453-4.9394531,3.2319336,0,4.8554688,2.3369141,4.8554688,4.7993164,0,2.8266602-2.1552734,4.8837891-4.8554688,4.8837891-3.1064453,0-4.9814453-2.2250977-4.9814453-4.7436523Zm8.4375.2939453c0-2.3085938-1.0214844-4.7993164-3.6938477-4.7993164-1.4555664,0-3.3442383.9931641-3.3442383,4.0576172,0,2.0708008,1.0073242,4.7573242,3.7636719,4.7573242,1.6791992,0,3.2744141-1.2592773,3.2744141-4.015625Z"/>
            <path class="cls-1" d="m168.3203125,21.2225954c0-1.3291016-.0419922-1.5673828-.6157227-1.637207l-.4477539-.0556641c-.0976562-.0703125-.0976562-.2939453.0141602-.3500977.7836914-.0698242,1.7490234-.1118164,3.1201172-.1118164.8676758,0,1.6933594.0698242,2.3369141.4199219.6713867.3496094,1.1611328.9794922,1.1611328,1.9584961,0,1.3295898-1.0493164,2.0571289-1.7490234,2.3369141-.0698242.0839844,0,.2241211.0698242.3359375,1.1196289,1.8046875,1.8613281,2.9243164,2.8125,3.7216797.2382812.2099609.5878906.3637695.9658203.3920898.0698242.027832.0839844.1396484.0136719.1958008-.1259766.0419922-.3496094.0698242-.6157227.0698242-1.1889648,0-1.902832-.3496094-2.8959961-1.7626953-.3642578-.5180664-.9375-1.4833984-1.371582-2.1132812-.2099609-.3076172-.4335938-.4477539-.9931641-.4477539-.6298828,0-.6577148.0141602-.6577148.3081055v1.7631836c0,1.46875.027832,1.6367188.8393555,1.7490234l.2939453.0419922c.0839844.0698242.0561523.3076172-.027832.3496094-.6298828-.027832-1.1054688-.0419922-1.6650391-.0419922-.5878906,0-1.0917969.0141602-1.7490234.0419922-.0839844-.0419922-.1123047-.2519531-.0283203-.3496094l.3500977-.0419922c.8115234-.0981445.8393555-.2802734.8393555-1.7490234v-5.0234375Zm1.1474609,2.0009766c0,.2519531,0,.4057617.0419922.4614258.0419922.0419922.2519531.0703125.965332.0703125.5039062,0,1.0356445-.0561523,1.4414062-.3637695.3774414-.2939453.6992188-.7836914.6992188-1.7353516,0-1.1054688-.6855469-2.1547852-2.2387695-2.1547852-.8671875,0-.9091797.0561523-.9091797.4477539v3.2744141Z"/>
            <path class="cls-1" d="m175.6904297,23.8251345c0-2.7983398,2.0991211-4.9394531,4.9814453-4.9394531,3.2319336,0,4.8554688,2.3369141,4.8554688,4.7993164,0,2.8266602-2.1552734,4.8837891-4.8554688,4.8837891-3.1064453,0-4.9814453-2.2250977-4.9814453-4.7436523Zm8.4375.2939453c0-2.3085938-1.0214844-4.7993164-3.6938477-4.7993164-1.4555664,0-3.3442383.9931641-3.3442383,4.0576172,0,2.0708008,1.0073242,4.7573242,3.7636719,4.7573242,1.6791992,0,3.2744141-1.2592773,3.2744141-4.015625Z"/>
            <path class="cls-1" d="m191.0913086,22.0199587c.7275391-1.0351562,1.1333008-1.5668945,1.3574219-1.9868164.0976562-.1679688.1679688-.2797852.1679688-.3779297,0-.0698242-.1401367-.1118164-.5039062-.1118164h-2.0849609c-1.1191406,0-1.7490234.0981445-2.0849609.4619141-.293457.3217773-.503418.7133789-.6157227.9511719-.1254883.0561523-.293457.0141602-.3496094-.0976562.1679688-.4897461.4057617-1.3291016.5737305-2.0991211.0561523-.0415039.1679688-.0415039.237793,0,.0419922.3359375.2519531.3500977,1.3852539.3500977h3.6938477c1.0078125,0,1.4555664-.0141602,1.609375-.0419922.0556641.0141602.0839844.0698242.0839844.1259766-.3779297.3217773-1.5673828,1.9448242-2.2949219,2.9941406l-2.3085938,3.3300781c-.1538086.2241211-1.3852539,1.9589844-1.3852539,2.1689453,0,.1401367.1396484.1679688.3916016.1958008.3637695.0283203,1.0913086.0283203,2.0708008.0283203.8955078,0,2.0571289-.0283203,2.5888672-.3217773.4057617-.2241211.7416992-.7416992.9794922-1.2875977.1259766-.0419922.3076172-.027832.3496094.0981445-.1259766.6435547-.4057617,1.637207-.6293945,1.9868164-.7700195-.027832-1.5673828-.0419922-2.546875-.0419922h-3.5961914c-.7412109,0-1.2451172.027832-1.5668945.0419922-.0561523-.027832-.0698242-.0981445-.0698242-.1679688.2939453-.2797852,1.0913086-1.2734375,1.5249023-1.902832l3.0224609-4.2958984Z"/>
            <path class="cls-1" d="m200.9941406,25.098572c-.0976562-.3081055-.1538086-.3500977-.5737305-.3500977h-2.112793c-.3496094,0-.4335938.0419922-.5317383.3359375l-.4897461,1.4692383c-.2099609.6298828-.3076172,1.0073242-.3076172,1.1611328,0,.1679688.0698242.2519531.4057617.2802734l.4614258.0419922c.0981445.0698242.0981445.293457-.027832.3496094-.3637695-.027832-.7973633-.027832-1.4550781-.0419922-.4619141,0-.965332.027832-1.3432617.0419922-.0839844-.0561523-.1118164-.2797852-.027832-.3496094l.4614258-.0419922c.3359375-.0283203.6435547-.1821289.8398438-.6860352.2514648-.6435547.6435547-1.5527344,1.230957-3.1201172l1.4272461-3.777832c.1958008-.5039062.2797852-.7695312.237793-.9936523.3359375-.0976562.5737305-.3496094.7280273-.5317383.0839844,0,.1816406.0283203.2094727.1259766.1821289.6157227.4057617,1.2592773.6157227,1.875l1.9169922,5.625c.4057617,1.203125.5878906,1.4130859,1.1894531,1.4833984l.3779297.0419922c.0976562.0698242.0698242.293457,0,.3496094-.5737305-.027832-1.0634766-.0419922-1.6933594-.0419922-.6713867,0-1.203125.027832-1.6088867.0419922-.1118306-.0561523-.1259766-.2797852-.027832-.3496094l.4057617-.0419922c.293457-.0283203.4897461-.1123047.4897461-.2519531,0-.1538086-.0703125-.4057617-.1821289-.7416992l-.6157227-1.902832Zm-2.7705078-1.2456055c-.1118164.3217773-.0976562.3359375.2939453.3359375h1.7211914c.4057617,0,.4335938-.0561523.3076172-.4335938l-.7553711-2.2807617c-.1123047-.3359375-.2382812-.7138672-.3217773-.8818359h-.0283203c-.0419922.0703125-.1816406.4057617-.3354492.8256836l-.8818359,2.4345703Z"/>
            <path class="cls-1" d="m202.5722656,19.4037478c-.0839844-.0839844-.0698242-.2797852.0419922-.3359375.3779297.027832,1.0073242.0419922,1.4414062.0419922.3916016,0,1.1049805-.0141602,1.5947266-.0419922.1259766.0419922.1123047.237793.0283203.3359375l-.3217773.027832c-.2939453.027832-.4619141.1118164-.4619141.237793,0,.1679688.2939453.8813477.7275391,1.875.7836914,1.7490234,1.609375,3.4980469,2.4208984,5.2192383.3354492-.699707.7133789-1.4833984,1.0771484-2.2666016.1259766-.2661133.2241211-.5039062.2241211-.5737305,0-.0703125-.0419922-.1962891-.1123047-.3637695-.4897461-1.1196289-1.0073242-2.2387695-1.5390625-3.3583984-.2099609-.4335938-.4194336-.7275391-.8955078-.7695312l-.3359375-.027832c-.0976562-.1123047-.0834961-.2797852.0283203-.3359375.4057617.027832.9375.0419922,1.4970703.0419922.699707,0,1.2172852-.0141602,1.5390625-.0419922.0981445.0419922.1118164.2236328.0283203.3359375l-.3642578.027832c-.5454102.0419922-.5595703.1401367-.293457.7695312.293457.6855469.6855469,1.5673828,1.0771484,2.4345703.2661133-.5454102.5175781-1.0771484.8256836-1.8330078.5039062-1.1889648.4335938-1.3432617-.0141602-1.3710938l-.4194336-.027832c-.0981445-.1401367-.0703125-.2939453.027832-.3359375.3779297.027832.7973633.0419922,1.3154297.0419922.4614258,0,1.0209961-.0141602,1.3432617-.0419922.0976562.0419922.1118164.2236328.027832.3359375l-.4057617.027832c-.5878906.0419922-.8398438.6713867-1.1474609,1.2451172-.2939453.5180664-.8813477,1.7353516-1.0913086,2.2250977-.0698242.1396484-.1259766.2797852-.1259766.3354492,0,.0561523.027832.1679688.0981445.3359375.4755859,1.0776367.965332,2.1269531,1.4267578,3.1904297.434082-.9794922.8535156-1.9589844,1.2597656-2.9526367.2797852-.6713867,1.0209961-2.5322266,1.1191406-2.7841797.1821289-.5039062.4199219-1.1054688.4199219-1.2734375,0-.1958008-.1679688-.3076172-.4619141-.3217773l-.4057617-.027832c-.1118164-.1259766-.0981445-.2797852.0141602-.3359375.5317383.027832.9091797.0419922,1.3432617.0419922.5317383,0,.9375-.0141602,1.3012695-.0419922.1118164.0419922.1259766.2236328.027832.3359375l-.265625.027832c-.699707.0698242-.8256836.4897461-1.6655273,2.4345703l-1.0209961,2.3647461c-.6157227,1.4272461-1.1757812,2.7983398-1.7490234,4.2958984-.0419922.027832-.0981445.0419922-.1679688.0419922-.0703125,0-.1401367-.0141602-.1962891-.0419922-.4477539-1.2456055-1.2592773-2.9946289-1.6928711-3.9741211-.5039062,1.0214844-1.3432617,2.8125-1.7490234,3.9741211-.0419922.027832-.0981445.0419922-.1679688.0419922s-.1396484-.0141602-.2099609-.0419922c-.237793-.5878906-.7832031-1.847168-.965332-2.2529297-.8955078-1.9448242-1.7631836-3.8901367-2.6723633-5.8349609-.2661133-.5737305-.434082-.9511719-1.0214844-1.0073242l-.3359375-.027832Z"/>
            <path class="cls-1" d="m220.6870117,25.098572c-.0981445-.3081055-.1538086-.3500977-.5737305-.3500977h-2.112793c-.3496094,0-.4335938.0419922-.5317383.3359375l-.4897461,1.4692383c-.2099609.6298828-.3076172,1.0073242-.3076172,1.1611328,0,.1679688.0698242.2519531.4057617.2802734l.4614258.0419922c.0981445.0698242.0981445.293457-.027832.3496094-.3637695-.027832-.7973633-.027832-1.4550781-.0419922-.4619141,0-.965332.027832-1.3432617.0419922-.0839844-.0561523-.1118164-.2797852-.027832-.3496094l.4614258-.0419922c.3359375-.0283203.6435547-.1821289.8398438-.6860352.2514648-.6435547.6435547-1.5527344,1.230957-3.1201172l1.4272461-3.777832c.1958008-.5039062.2797852-.7695312.237793-.9936523.3359375-.0976562.5737305-.3496094.7280273-.5317383.0834961,0,.1816406.0283203.2094727.1259766.1821289.6157227.4057617,1.2592773.6157227,1.875l1.9169922,5.625c.4057617,1.203125.5878906,1.4130859,1.1894531,1.4833984l.3779297.0419922c.0976562.0698242.0698242.293457,0,.3496094-.5737305-.027832-1.0634766-.0419922-1.6933594-.0419922-.6713867,0-1.203125.027832-1.6088867.0419922-.1118164-.0561523-.1259766-.2797852-.0283203-.3496094l.40625-.0419922c.293457-.0283203.4892578-.1123047.4892578-.2519531,0-.1538086-.0698242-.4057617-.1816406-.7416992l-.6157227-1.902832Zm-2.7705078-1.2456055c-.1118164.3217773-.0976562.3359375.2939453.3359375h1.7211914c.4057617,0,.4335938-.0561523.3076172-.4335938l-.7553711-2.2807617c-.1123047-.3359375-.237793-.7138672-.3217773-.8818359h-.0283203c-.0419922.0703125-.1816406.4057617-.3359375.8256836l-.8813477,2.4345703Z"/>
          </g>
        </g>
        <g>
          <path class="cls-3" d="m54.7072729,51.9558912c0-.2823144.3956847-.2823144.6215362-.2823144,1.9757561,0,2.6253014,1.4680348,2.6253014,1.5809605,0,.3387773-.2823144.7060082-.8469431,1.4115719-.1413795.1978424-.2258515.3107681-.2258515.451703,0,.2258515.3387773.2258515.451703.2258515.2823144,0,2.3714408-.3107681,4.2911786-1.1292575.3387773-.1409349,1.0163318-.451703,1.3266553-.451703.2543052,0,.3956847.0849166,1.5529514.7624711.1693886.084472.903406.4797121,1.0443409.5646288.3107681.1973978.5366196.4797121.5366196.7055637,0,.3952401-.1978523.5081659-1.1292575,1.0727946-.3107681.1973978-.4236939.367231-1.4115719,1.891284-1.439581,2.258515-4.4885763,6.8884709-10.1068548,10.6150207-3.1054582,2.0326635-5.4484452,2.710218-5.6182784,2.710218-.1409349,0-.2538606-.1129258-.2538606-.2538606,0-.1129258.0849166-.1693886.9598689-.6495454,8.6108109-4.7428816,13.9743395-14.3695796,13.9743395-15.2449765,0-.2538606-.2258515-.3103235-.3103235-.3103235-.0564629,0-3.9524013.8749523-4.6299558.8749523-.1693886,0-.9318597-.084472-1.1008038-.084472-.5366196,0-.5930825.0564629-1.7788029,1.4115719-1.7218954,1.9197378-2.4279037,2.6537552-3.8394756,3.6700869-1.1572667.8469431-2.3714408,1.4964885-2.710218,1.4964885-.1409349,0-.1978424-.0849166-.1978424-.1698332,0-.1973978,1.8917286-1.7783583,2.2305059-2.1171355,2.2865242-2.2869688,4.9687331-6.1824626,4.7428816-7.8763489-.0280091-.1413795-.1978424-.7624711-.1978424-.8753969Zm13.2972296.9598689c0,.4801567-.3387773,1.1008038-.8184894,1.1008038-.3956847,0-.6215362-.168944-1.4964885-1.2137295-.5646288-.6491008-.8469431-.8469431-2.0042098-1.6654325-.1413795-.0849166-.4236939-.282759-.4236939-.3956847s.2258515-.2538606.4797121-.2538606c3.6136241,0,4.2631694,2.0891264,4.2631694,2.4279037Zm.6775545-4.2627248c1.1572667.6775545,1.1572667,1.3266553,1.1572667,1.6089697,0,.4236939-.2818698.8184894-.7055637.8184894-.5926379,0-.8753969-.2818698-1.4960439-.9314152-.451703-.4797121-1.637868-1.1292575-2.5972923-1.3831182-.282759-.0849166-.367231-.2258515-.367231-.3107681,0-.2258515.7340174-.3952401,1.0163318-.3952401,1.1008038,0,2.0326635,0,2.9925324.5930825Z"/>
          <path class="cls-3" d="m75.7914888,70.6451032c8.8082086-4.7428816,11.1236311-10.8408722,11.1236311-11.4339547,0-.3387773-.1978424-.536175-.5930825-.536175-.9598689,0-8.0461821,1.2421833-9.2883654,1.6094143-.1973978.0560183-1.1008038.4797121-1.2982016.4797121-1.2141741,0-3.2188285-2.4279037-3.2188285-3.2183839,0-.084472.0849166-.1413795.1698332-.1413795.084472,0,.4232493.1978424.5077213.2258515.5366196.2258515,1.6094143.4801567,2.7951346.4801567,2.3149779,0,7.9328118-.7340174,8.9775973-.8469431.0564629,0,1.9197378-.1693886,1.9481915-.1693886.1409349-.0564629.6775545-.3103235.8184894-.3103235.4797121,0,2.4843665,1.6654325,2.4843665,2.3145333,0,.4236939-.1129258.5366196-.7624711,1.0732392-.4797121.3947955-.7620265.8184894-1.5240531,2.0042098-2.2305059,3.3877726-3.980855,5.5049081-7.9617101,7.5375716-2.5123757,1.270637-4.7428816,1.8352658-4.9967422,1.8352658-.2258515,0-.2538606-.1693886-.2538606-.2258515s.0280091-.1413795.0560183-.1693886c.0569075-.0564629.8473877-.4236939,1.0163318-.5081659Zm.7060082-18.4633604c.451703.1129258,1.1008038.1129258,1.4964885.1129258,1.3266553,0,3.1899302-.0564629,4.5170301-.3107681.4232493-.084472,2.3714408-.5646288,2.7662363-.5646288.4801567,0,1.72234.2543052,1.72234,1.0732392,0,.8749523-.987878.9594243-2.625746,1.1008038-.451703.0564629-6.5212399.5930825-6.7186376.5930825-1.4964885,0-2.3434316-1.9197378-2.3434316-2.1175801,0-.1409349.0564629-.1978424.1693886-.1978424.1693886,0,.8469431.282759,1.0163318.3107681Z"/>
          <path class="cls-3" d="m102.128086,66.4383966c-.7340174.5366196-2.174043,1.6094143-2.7666809,2.3154225-.5366196.6491008-.5926379.7055637-1.0163318.7055637-1.5244976,0-3.6136241-1.806812-3.6136241-2.9360695,0-.1978424.0280091-1.4960439.2823144-1.4960439.1129258,0,.7340174.4797121.8469431.536175.3667864.2258515,1.2986461.6491008,1.9197378.6491008,1.3831182,0,8.8646715-4.9967422,13.5510902-9.626698.451703-.451703,1.2421833-1.2421833,1.2986461-1.2421833s.1413795.0849166.1413795.1409349c0,.2543052-3.3033005,5.5333618-10.6434744,10.9537979Zm-2.3149779-9.2879208c-.7624711,0-1.0443409-.451703-1.9762007-1.8632749-.9598689-1.439581-1.7783583-1.8632749-2.5688386-2.3149779-.1129258-.0564629-.2543052-.1409349-.2543052-.2538606s.2258515-.2543052.6210916-.2543052c3.0209862,0,5.3924269,1.6094143,5.3924269,3.2748468,0,.8469431-.4801567,1.4115719-1.2141741,1.4115719Z"/>
          <path class="cls-3" d="m121.095611,60.1430082c0,.5646288-.4236939,1.4115719-1.1012484,1.4115719-.4232493,0-.5646288-.1693886-.987878-.8753969-.5930825-1.0163318-1.5525068-1.7499046-2.5688386-2.3429871-.0849166-.0564629-.2543052-.1693886-.2543052-.2823144,0-.3952401,1.6094143-.4236939,1.9762007-.4236939,1.2141741,0,2.9360695,1.1292575,2.9360695,2.5128203Zm-3.4726892,8.7517458c-.084472-.1409349-.5926379-.7340174-.6775545-.8753969-.084472-.1409349-.168944-.3667864-.168944-.536175,0-.1129258.084472-.1973978.2538606-.1973978.2538606,0,1.3270999.3667864,1.5529402.3667864,1.2137408,0,8.8082199-4.2347157,15.5553112-11.8852131.1413795-.1698332,1.1292575-1.270637,1.2137295-1.270637.0569075,0,.1129258.0284537.1129258.1129258,0,.3103235-2.4843665,6.3522958-14.1717372,14.5389682-.3387773.2258515-1.6938863,1.4964885-2.0611173,1.4964885-.6210916,0-.903406-.451703-1.6094143-1.7503492Zm6.8604617-14.3695796c0,.6491008-.451703,1.2701924-.903406,1.2701924-.3107681,0-.451703-.1129258-1.4680348-1.3270999-.7624711-.903406-1.7503492-1.2982016-2.4279037-1.4960439-.1129258-.0280091-.4232493-.1129258-.4232493-.1978424,0-.084472.7904803-.536175,2.1735984-.536175,3.0489953,0,3.0489953,2.2020522,3.0489953,2.2869688Z"/>
          <path class="cls-3" d="m140.316552,54.1579434c.5646288.084472,1.186165.1129258,1.7788029.1129258,2.5123757,0,10.897335-1.3266553,11.6878153-1.6374234.1973978-.0849166.987878-.6495454,1.1577112-.6495454.6491008,0,3.3308651,2.710218,3.3308651,3.6705315,0,.1973978,0,.5077213-.987878.7335728-.987878.1978424-5.3075103,1.7788029-5.9005928,2.5692831-.3387773.4797121-.451703.8184894-1.439581,3.6136241-.5081659,1.4680348-2.1171355,5.9570557-7.1143224,8.723292-.9318597.5086105-1.7503492.818934-1.9481915.818934-.1129258,0-.168944-.0564629-.168944-.1413795,0-.084472.0560183-.1409349.5646288-.536175,1.5809605-1.1577112,3.5287074-2.8231438,5.0532051-5.2510475,1.5525068-2.4843665,2.1171355-4.8838165,2.1171355-6.1829072,0-.620647-.1129258-1.1572667-.3667864-1.6654325-.2258515-.451703-.2538606-.5081659-.2538606-.6210916,0-.2258515.4232493-.2538606.5926379-.2538606.4797121,0,.8184894.0280091,1.5244976.2538606.1693886.0564629.9318597.3667864,1.1008038.3667864.7904803,0,3.5006983-2.710218,3.5006983-3.4437908,0-.1978424-.168944-.4236939-.536175-.4236939-.451703,0-5.5618156.3952401-10.0788456,1.7503492-.3947955.1129258-2.0042098.818934-2.3714408.818934-.6775545,0-2.8791621-1.806812-2.8791621-2.7951346,0-.0564629.0560183-.1129258.1973978-.1129258.084472,0,1.2137295.2538606,1.439581.2823144Z"/>
          <path class="cls-3" d="m167.188435,62.5709119c-.5930825,0-.6215362.2258515-.7904803,1.355109-.6775545,4.2347157-1.9481915,7.0863132-3.4162263,8.6952829-.5081659.5646288-.7060082.7340174-.8749523.7340174-.0284537,0-.1129258,0-.1129258-.084472,0-.1129258.620647-1.355109.7335728-1.6094143.7060082-1.7503492,2.0611173-5.1945846,2.0611173-12.5632122,0-2.6817643-.1413795-3.7545589-.2823144-4.8273536-.0280091-.1413795-.1409349-.7620265-.1409349-.903406,0-.0564629,0-.1413795.084472-.1413795.1129258,0,1.355109.7060082,1.6094143.8473877.7055637.3667864.8464985.451703,1.439581.451703h2.3429871c.282759,0,.4801567,0,.734462-.3387773.5926379-.818934.6491008-.903406,1.0443409-.903406.5366196,0,2.0606727,1.2982016,2.0606727,1.7499046,0,.2258515-.0280091.282759-.4797121.818934-.1129258.1413795-.1129258.2258515-.1129258.987878,0,.903406.0564629,4.799789.0564629,5.5902693,0,1.891284-1.4680348,1.9197378-1.6938863,1.9197378-.6775545,0-.7340174-.282759-.7340174-.8753969,0-.3952401,0-.903406-.7904803-.903406h-2.7382272Zm1.891284-12.7326008c1.1857204,0,1.355109-.0560183,1.4680348-.168944.1693886-.1978424.8749523-1.3270999,1.1292575-1.3270999.2823144,0,2.5972923,1.8348212,2.5972923,1.9762007,0,.2258515-.5646288.2543052-1.4680348.2543052h-4.9122702c-.7904803,0-1.6658771.0280091-2.4563574.0560183-.168944,0-.987878.0849166-1.1572667.0849166-.1129258,0-.1693886-.0564629-.2823144-.1978424l-.5646288-.6491008c-.084472-.1129258-.1129258-.1413795-.1129258-.1693886,0-.0564629.084472-.0564629.1129258-.0564629.1973978,0,1.0727946.084472,1.270637.084472.9594243.0569075,2.3429871.1129258,3.2748343.1129258h1.1008163Zm1.0447855,11.9985834c.8749523,0,.8749523-.367231.8749523-1.4115719,0-.6210916,0-4.2631694-.084472-4.657965-.0569075-.367231-.4801567-.4801567-.7904803-.4801567h-2.4843665c-.818934,0-.818934.367231-.8473877,1.2421833,0,.7060082-.1129258,3.9524013-.1129258,4.4605672,0,.2538606,0,.8469431.7904803.8469431h2.6541998Zm14.3695796-3.3877726c-.1978424,0-.5646288,0-.7340174.367231-.1129258.1973978-.1129258,2.710218-.1129258,3.1899302,0,1.5809605.084472,8.63882.084472,10.078401,0,1.2990907-1.3266553,1.5529514-1.7218954,1.5529514-.5646288,0-.6495454-.2258515-.6495454-.6775545,0-.2538606.1129258-2.1175801.1413795-2.5123757.084472-1.9481915.084472-4.2351603.084472-6.1829072,0-.5081659,0-5.2510475-.1129258-5.476899-.168944-.3387773-.5926379-.3387773-.7335728-.3387773h-2.174043c-.536175,0-.6210916.1413795-.6491008.8749523-.367231,6.747536-1.5529514,9.0909676-3.8394756,11.4904175-1.1292575,1.1572667-2.089571,1.7503492-2.2869688,1.7503492-.0564629,0-.1129258-.0284537-.1129258-.084472,0-.1129258.3103235-.4801567.4232493-.5930825,2.8231438-3.161921,3.8679293-6.4083141,3.8679293-13.0149152,0-2.1735984-.2823144-5.9566111-.3103235-6.4083141-.0284537-.2258515-.1413795-1.2421833-.1413795-1.4680348,0-.1129258,0-.1973978.084472-.1973978.3107681,0,1.9197378.5926379,2.174043.5926379.4801567,0,2.1171355-.903406,3.6136241-2.0606727.2543052-.1978424,1.72234-1.4400256,1.806812-1.4400256.0564629,0,1.891284.9598689,2.2300613,1.1292575.7624711.3667864.8473877.4236939.8473877.5646288,0,.1693886-.1129258.1978424-.9318597.3667864-.451703.0849166-5.8721391,1.5809605-7.0013966,1.8352658-.2258515.0564629-.3103235.084472-.367231.2258515-.0560183.1413795-.0560183,1.6094143-.0560183,1.9197378,0,.451703.0280091,2.5688386.0280091,2.9925324,0,.451703,0,.7904803.5366196.7904803h3.9804105c1.1857204,0,1.4960439,0,1.806812-.4797121.7904803-1.2990907.8753969-1.4400256,1.1292575-1.4400256.3667864,0,2.8511529,1.9477469,2.8511529,2.258515,0,.3952401-.5646288.3952401-1.5240531.3952401h-2.2305059Z"/>
          <path class="cls-3" d="m192.7034306,55.7389039c.1698332,0,3.6985407.536175,3.6985407,2.8515975,0,.8184894-.4797121,1.2982016-.9314152,1.2982016-.282759,0-.5366196-.1409349-.903406-.8749523-.6215362-1.270637-1.72234-2.5408294-1.8352658-2.6537552-.4232493-.3387773-.4801567-.3952401-.4801567-.4236939,0-.0560183.2258515-.1973978.451703-.1973978Zm1.355109,10.3327063c.5646288-.2538606.903406-.4236939,2.9080604-3.8394756,1.2701924-2.1175801,2.6537552-4.5734929,3.9243922-6.8604617.1973978-.3387773.2538606-.4232493.3387773-.4232493.084472,0,.084472.084472.084472.1129258,0,.5646288-4.8558073,10.6150207-4.8558073,11.9136668,0,.3107681.0564629.6775545.1413795.9314152.8184894,2.9360695.9314152,3.2748468.9314152,3.9243922,0,1.4400256-.9598689,1.4400256-1.0443409,1.4400256-1.4680348,0-1.4680348-1.72234-1.4680348-2.3714408,0-2.2024967-.7624711-3.6985407-1.9481915-3.980855-.1413795-.0564629-.7340174-.1693886-.6491008-.4232493.0280091-.0569075,1.3831182-.3107681,1.6369788-.4236939Zm1.1292575-17.3625566c.5366196,0,3.7265498.7624711,3.7265498,2.5692831,0,.6210916-.3667864,1.2701924-.987878,1.2701924-.5930825,0-.7340174-.2258515-1.891284-2.258515-.1413795-.2538606-.9883226-1.2137295-.9883226-1.439581,0-.084472.0564629-.1413795.1409349-.1413795Zm17.0517885,1.2141741c.9318597,0,1.2141741,0,1.4680348-.3107681.6215362-.7335728.6775545-.8184894.903406-.8184894.4801567,0,1.6938863,1.3831182,1.6938863,1.6938863,0,.1978424-.4797121.8753969-.536175,1.0163318-.084472.1693886-.084472,1.1857204-.084472,1.4400256,0,.7335728.168944,4.1782528.168944,4.657965,0,.9883226-.8464985,1.6658771-1.439581,1.6658771-.084472,0-.7620265,0-.8749523-.8753969-.0569075-.3952401-.451703-.5081659-.7904803-.5081659h-2.0326635c-.6495454,0-.8473877.2543052-.8473877.7904803,0,3.2463931,2.2869688,8.5539034,5.8721391,11.6878153.282759.2258515,1.7507937,1.4115719,1.7507937,1.4680348,0,.1693886-1.806812.1409349-2.1455893.2538606-1.186165.451703-1.3270999.5086105-1.4680348.5086105-.6495454,0-3.7265498-4.799789-4.432558-10.6999373-.084472-.8184894-.1129258-1.8632749-.1693886-3.1899302-.0280091-.6775545-.3387773-.818934-.8469431-.818934h-2.5408294c-.7904803,0-.9314152.2258515-.9598689.818934-.3387773,5.7307596-.4232493,7.9892746-2.8231438,11.8852131-1.3266553,2.1175801-2.5972923,2.9925324-2.7946901,2.9925324-.0569075,0-.1129258-.0284537-.1129258-.084472,0-.1413795.987878-1.4400256,1.1572667-1.72234,2.8231438-4.7144278,2.8231438-11.4899729,2.8231438-16.2048454,0-1.5244976,0-4.1217899-.2538606-5.4484452-.0284537-.1413795-.2543052-.818934-.2543052-.9603135,0-.1409349.1973978-.1409349.2543052-.1409349.2538606,0,1.1292575.3387773,1.9197378.7340174.1973978.084472.7904803.1693886,1.2701924.1693886h6.1259997Zm.4801567,7.2272481c.3387773,0,.8749523,0,.8749523-.8469431,0-.7340174-.0280091-4.0088642-.0280091-4.6864187,0-.7055637-.1693886-.9314152-.8469431-.9314152h-6.8600171c-.3387773,0-.8473877.0280091-.8473877.8184894,0,.7624711-.0280091,4.0933362-.0280091,4.7708907,0,.8753969.4797121.8753969.9883226.8753969h6.7470914Z"/>
          <path class="cls-3" d="m228.7498641,54.4682669c-.5081659,0-.903406.0569075-.903406.9318597,0,.6491008.2258515.7904803.818934,1.1292575,2.8511529,1.6094143,3.4157817,1.9197378,3.4157817,3.1054582,0,.8469431-.5646288,1.3270999-1.0727946,1.3270999s-.818934-.367231-1.2421833-1.355109c-.3387773-.7624711-1.2986461-2.2024967-1.6374234-2.2024967-.1978424,0-.1978424.1413795-.1978424.5366196,0,2.1175801.0284397,6.8035542.0569075,8.8082086.0280091.7055637.168944,4.0933362.168944,4.8558073,0,1.806812-1.2701924,2.0046544-1.4960439,2.0046544-.6495454,0-.7055637-.4236939-.7055637-.8753969,0-1.0163318.168944-5.9570557.168944-7.0578595,0-.5081659-.0280091-2.8796067-.0280091-3.4162263,0-.1409349-.0280091-.6491008-.2538606-.6491008-.1698332,0-.3956847.3103235-.451703.4801567-1.4120165,3.0770044-3.1339119,5.3355195-3.529152,5.3355195-.084472,0-.1693886-.0849166-.1693886-.1978424,0-.084472.9883226-2.2300613,1.1572667-2.6253014,2.1175801-4.9967422,2.9645233-9.4293003,2.9645233-9.7116146,0-.3387773-.1973978-.4236939-.536175-.4236939-.5930825,0-2.3998945,0-2.9645233.0849166-.1129258,0-.3103235.0564629-.3952401.0564629s-.1409349-.0564629-.2538606-.1973978l-.5366196-.6495454c-.0564629-.0849166-.1129258-.1409349-.1129258-.1693886,0-.0564629.0564629-.084472.0849166-.084472.5926379,0,3.4437908.1973978,4.0653271.1973978.8184894,0,.8464985-.3952401.8464985-1.1008038,0-.4801567-.0560183-2.8231438-.084472-3.1059028,0-.168944-.2543052-1.0163318-.2543052-1.2137295,0-.1413795.0849166-.2258515.282759-.2258515.1409349,0,1.2137295.3387773,1.4680348.4232493.8184894.282759,1.2701924.4236939,1.2701924.7904803,0,.2258515-.0849166.282759-.7055637.818934-.1698332.1413795-.1698332,2.3149779-.1698332,2.710218,0,.4232493.0284537.903406.734462.903406.7055637,0,.8749523-.0564629,1.1292575-.4801567.451703-.7620265.5077213-.8464985.7055637-.8464985.3952401,0,2.0606727,1.439581,2.0606727,1.6938863,0,.3947955-.620647.3947955-1.3831182.3947955h-2.3149779Zm2.5972923-4.5730484c-.084472-.0569075-.1413795-.1413795-.1413795-.1978424,0-.0280091.0569075-.0564629.1129258-.0564629.1978424,0,1.0447855.084472,1.2421833.1129258,1.3835628.0564629,2.541274.084472,3.8679293.084472h5.1381217c1.2986461,0,1.4400256,0,1.806812-.4797121.5646288-.6775545.903406-1.1012484,1.2141741-1.1012484.5077213,0,2.4274591,1.6658771,2.4274591,1.9197378,0,.3956847-.5926379.3956847-1.355109.3956847h-4.9118256c-.5930825,0-.8473877.0280091-1.186165.451703-.1973978.2538606-1.355109,1.891284-1.355109,2.0326635,0,.2818698.4236939.2818698.5646145.2818698h2.5973066c.4801567,0,.9603135,0,1.3270999-.4232493.3387773-.4232493.4236939-.5081659.6210916-.5081659.0564629,0,2.2300613,1.2701924,2.2300613,1.6374234,0,.2543052-.084472.2823144-.7335728.536175-.3387773.1413795-.3387773.3387773-.3387773.6215362,0,.9594243.084472,6.0410831.084472,6.5212399,0,.6210916,0,1.5525068-1.3266553,1.5525068-.367231,0-.4236939-.1129258-.6495454-.6491008-.1129258-.2258515-.3952401-.2258515-.5926379-.2258515h-3.161921c-.0849166,0-.3956847,0-.3956847.1413795,0,.084472.1129258.1973978.1978424.2538606.2258515.1693886.2538606.3667864.2538606.4236939,0,.2258515-.168944.3103235-.7335728.5077213-.4801567.1978424-.818934.7624711-.818934.903406,0,.1978424.1973978.1978424.3387773.1978424h4.4041043c.3387629,0,.7060082,0,1.0163318-.1978424.1129258-.0560183.5646288-.536175.6775545-.536175.2258515,0,1.7783583,1.6654325,1.7783583,1.9481915,0,.3387773-.3387773.451703-1.2137295.7055637-.084472.0280091-.536175.451703-.6775545.5646288-.6491008.5926379-1.2986461,1.1572667-2.0042098,1.6938863-.0849166.0564629-.3107681.2258515-.3107681.3667864,0,.4801567,3.5287074,1.7788029,4.2347157,1.9481915.6775545.1693886,1.806812.3952401,2.5128203.5646288.168944.0284537.2818698.1413795.2818698.1973978,0,.1129258-.084472.1413795-.620647.1978424-.8753969.1129258-1.5249422.2538606-1.9197378.5646288-.1413795.1129258-.734462.8184894-.903406.8184894-.4801567,0-2.8515975-1.2421833-4.5739375-2.5403848-.5646288-.4236939-.620647-.4801567-.8184894-.4801567-.3107681,0-1.4680348.7620265-1.7218954.903406-1.5529514.7904803-4.1222345,1.9762007-5.7312042,1.9762007-.0849166,0-.4236939,0-.4236939-.1129258s2.174043-1.0163318,2.5972923-1.2421833c1.0732392-.5366196,4.0937808-2.1735984,4.0937808-2.710218,0-.1693886-.0564629-.2823144-.3387773-.5926379-.6491008-.7624711-1.0727946-1.5809605-1.5809605-2.5128203-.0564629-.1413795-.1693886-.3103235-.3387773-.3103235-.1413795,0-.2543052.1129258-.367231.2258515-.9594243.987878-3.8110218,3.3593188-4.4041043,3.3593188-.084472,0-.1409349-.0284537-.1409349-.1129258,0-.1973978,1.4400256-1.5525068,1.6938863-1.8352658,2.1455893-2.5403848,3.2183839-4.4885763,3.2183839-4.6859741,0-.1129258-.1129258-.1413795-.1973978-.1413795-.1129258,0-.282759.084472-.3107681.1129258-.3952401.2543052-.5366196.3103235-.903406.3103235-.6775545,0-.8184894-.3387773-.8184894-.8464985.0280091-.5930825.084472-3.1903748.084472-3.7265498,0-1.9481915-.084472-4.3760952-.2258515-5.1665754-.0284537-.1409349-.1693886-.6775545-.1693886-.7904803,0-.1409349.1129258-.2538606.2823144-.2538606.2823144,0,1.4115719.5926379,1.6374234.7055637.4236939.1409349.5646288.1409349.8184894.1409349.5086105,0,1.186165,0,1.186165-2.0886818,0-.6775545-.2543052-.6775545-1.6938863-.6775545-1.270637,0-2.5128203.0560183-3.0489953.084472-.1129258,0-.5086105.0564629-.5930825.0564629-.1129258,0-.1693886-.0564629-.2543052-.1693886l-.536175-.6491008Zm5.0251959,4.206262c-.5926379,0-.6775545.0280091-.6775545,1.2986461,0,.5930825.2258515.6210916.6495454.6210916h5.6742967c.451703,0,.6775545-.0280091.6775545-.6495454,0-1.2421833-.1129258-1.2701924-.7055637-1.2701924h-5.6182784Zm0,2.6822089c-.5926379,0-.6495454.2538606-.6495454.8749523,0,.8749523,0,1.1857204.6495454,1.1857204h5.7592133c.6210916,0,.6210916-.3107681.6210916-1.0163318,0-.7340174,0-1.0443409-.6210916-1.0443409h-5.7592133Zm5.7027505,4.8838165c.4801567,0,.6491008,0,.6491008-1.3831182,0-.6215362-.1409349-.7060082-.620647-.7060082h-5.6747413c-.2823144,0-.6210916,0-.6210916.5646288,0,1.5244976.2258515,1.5244976.6775545,1.5244976h5.5898247Zm-4.5734929,3.9243922c-.1409349,0-.3952401,0-.3952401.2258515,0,.6491008,1.9481915,2.6817643,2.5128203,2.6817643.451703,0,2.3994499-2.1455893,2.3994499-2.5408294,0-.3667864-.2538606-.3667864-.451703-.3667864h-4.0653271Z"/>
          <path class="cls-3" d="m255.8462648,64.8014178c-.4797121,0-.7340174.168944-.8184894.5077213-.0284537.282759.0280091,1.6938863.0280091,2.0046544,0,.3667864,0,1.355109-1.6374234,1.355109-.536175,0-.5646288-.2823144-.5646288-.5646288,0-.2258515.0564629-1.3270999.0564629-1.5809605.0280091-1.7788029.0849166-4.2347157.0849166-8.4974405,0-3.077449-.0849166-6.0699814-.1978424-7.5944791,0-.1693886-.1129258-1.0727946-.1129258-1.270637,0-.1129258.0849166-.1973978.1978424-.1973978.168944,0,.3103235.0564629,1.5809605.6491008.620647.3107681,1.1572667.3107681,1.5809605.3107681h4.4885763c.536175,0,.7340174-.0849166.9598689-.3667864.3952401-.451703.4797121-.5366196.6775545-.5366196.4236939,0,1.9762007,1.355109,1.9762007,1.7788029,0,.1409349-.3952401.7904803-.451703.9594243-.2543052.5366196-.2543052,1.4400256-.2543052,1.9481915,0,1.806812.2258515,10.3327063.2258515,11.8007411,0,1.0727946-.8464985,1.5529514-1.4960439,1.5529514-.6210916,0-.6210916-.3956847-.6210916-1.4964885,0-.451703,0-.7620265-.7060082-.7620265h-4.9967422Zm.8469431-8.0746358c.7060082,0,.7060082-.2818698.7060082-1.1572667,0-.5926379-.0284537-4.1217899-.0849166-4.4605672-.0849166-.367231-.3387773-.4232493-.6775545-.4232493h-1.1012484c-.1973978,0-.5077213,0-.620647.3103235-.0849166.1693886-.0849166,2.3714408-.0849166,2.7386718,0,.3387773,0,2.5123757.0849166,2.710218.1129258.2818698.451703.2818698.620647.2818698h1.1577112Zm-1.1292575.7624711c-.6210916,0-.6775545.3387773-.6775545.8469431,0,.6775545.0564629,5.0532051.1129258,5.3075103.084472.3952401.451703.3952401.6491008.3952401h1.0732392c.1409349,0,.4797121,0,.5926379-.2823144.1129258-.2543052.1129258-2.7946901.1129258-3.2748468,0-2.9076158,0-2.9925324-.7055637-2.9925324h-1.1577112Zm4.4041043-6.8035542c-.2258515,0-.536175,0-.7060082.2538606-.084472.1693886-.084472,2.710218-.084472,3.0489953,0,.3952401,0,2.3149779.084472,2.4843665.1698332.2538606.5086105.2538606.7060082.2538606h.903406c.6775545,0,.7620265-.2538606.7620265-.8184894,0-.3107681-.0280091-4.5734929-.0560183-4.6864187-.0284537-.536175-.4801567-.536175-.7624711-.536175h-.8469431Zm0,6.8035542c-.5646288,0-.7620265.1129258-.7620265.8469431,0,.5646288,0,5.1381217.1409349,5.4488898.1409349.2538606.3952401.2538606.7624711.2538606h.7335728c.7904803,0,.7904803-.0564629.7904803-2.3434316,0-.5077213,0-3.6696423-.0280091-3.7825681-.1129258-.4236939-.3952401-.4236939-.7340174-.4236939h-.903406Zm4.9122702-7.0578595c-.1129258-.1129258-.1129258-.1413795-.1129258-.1693886,0-.0564629.0280091-.0564629.0849166-.0564629.1409349,0,.7335728.0564629.8749523.0564629,2.5408294.1129258,2.8231438.1129258,3.8394756.1129258h2.3429871c1.186165,0,1.2990907,0,1.8352658-.8184894.5646288-.8753969.6491008-.9883226.7060082-1.0447855.0560183-.0564629.1409349-.084472.1973978-.084472.367231,0,2.8515975,2.1171355,2.8515975,2.3429871,0,.367231-.6215362.367231-1.5249422.367231h-2.8231438c-.903406,0-.903406.536175-.903406.987878,0,1.2137295.0284537,4.6015021.0849166,10.3046971,0,1.1852758.1978424,6.4367678.1978424,7.5091179,0,.8753969,0,2.089571-1.1292575,2.9080604-.6495454.451703-1.3835628.6495454-2.174043.6495454-.367231,0-.3952401-.0849166-.5081659-.8473877-.0564629-.5077213-.7904803-1.1852758-1.2986461-1.3266553-.3387773-.1129258-1.891284-.5081659-2.2020522-.5930825-.1129258-.0560183-.2538606-.1409349-.2538606-.2538606,0-.0849166.0560183-.2258515.2538606-.2258515.1409349,0,1.8917286.2258515,2.258515.2823144.1409349,0,1.8348212.084472,1.9762007.084472.8749523,0,.8749523-.5926379.8749523-1.4680348,0-1.2982016-.168944-16.0354567-.1973978-16.9668719-.0284537-1.0163318-.2543052-1.0443409-1.1577112-1.0443409-.2818698,0-1.6938863,0-2.710218.084472-.084472,0-.5077213.0564629-.5926379.0564629s-.1409349-.0564629-.2538606-.1978424l-.5366196-.6491008Z"/>
        </g>
        <g>
          <path class="cls-3" d="m58.4542738,93.0902078c-.4806013,0-1.0492314-.3641189-1.0492314-1.1368155,0-.7869235.6557696-1.7779137,1.8508264-2.5648372l.1751683.2623078c-.6415428.5099442-.8309379.8745077-.8309379,1.1221441,0,.1893952.1022556.2329649.2187381.2769793.4081332.1458254.6993394.5392872.6993394.9763187,0,.5392872-.451703,1.0639028-1.0639028,1.0639028Zm2.7982468,0c-.4806013,0-1.0492314-.3641189-1.0492314-1.1368155,0-.7869235.6557696-1.7779137,1.8508264-2.5648372l.1604968.2623078c-.6410982.5099442-.8162665.8745077-.8162665,1.1221441,0,.1893952.0875841.2329649.2187381.2769793.3934618.1458254.6851125.5392872.6851125.9763187,0,.5392872-.4374761,1.0639028-1.049676,1.0639028Z"/>
          <path class="cls-3" d="m75.1379422,90.4377864l.4521476-.6557696c.0871396-.1311539.1453808-.2040666.2182935-.2040666s.1751683.0871396.2040666.1164825l1.0639028.801595c.1751683.1311539.2334095.1893952.2334095.2916508,0,.1311539-.0582412.1600522-.5246157.5392872-.0440144.4370316-.0440144,1.0198885-.0440144,1.3115392,0,3.3664323.0875841,5.7565458.1311539,7.0245153.0146715.3209937.0146715.5833015.0146715.6121998,0,.5975284-.5392872.8891791-1.0785743.8891791-.4370316,0-.6264267-.2040666-.6264267-.5828569,0-.0582412.0146715-.2916508.0288983-.4228047h-5.9023712c.0146715.0875841.0146715.2187381.0146715.3058776,0,.5246157-.5246157.8456094-1.1221441.8456094-.5392872,0-.5392872-.4081332-.5392872-.6557696,0-.0293429,0-.2769793.0435698-2.5799533.0146715-.6121998.0293429-3.4540164.0293429-3.9639606,0-1.253298,0-3.3522054-.2040666-4.4454511l1.9090676.7726967h1.5156059c.349892-1.6761027.3645635-1.7490154.4228047-2.5795087l2.0113232.801595c.101811.0435698.2182935.1164825.2182935.2329649,0,.1604968-.1311539.1893952-.7429092.3787903-.2187381.1751683-1.1225887,1.0056616-1.3119838,1.1661585h3.5851703Zm-5.8294585.349892v2.6959912h5.9170426v-2.6959912h-5.9170426Zm0,3.0458832v2.6959912h5.9170426v-2.6959912h-5.9170426Zm0,3.0458832v2.9294007h5.9170426v-2.9294007h-5.9170426Z"/>
          <path class="cls-3" d="m94.0490043,92.3179557v4.6926429c0,.5103888.0871396,2.7253341.0871396,3.1774817,0,.1600522,0,.451703-.2476364.6557696-.2623078.2329649-.6121998.3058776-.8598362.3058776-.5246157,0-.5975284-.349892-.5539586-.9616472h-7.8407817c.0146715.2329649.0288983,1.0781297-1.0056616,1.0781297-.6557696,0-.6557696-.3934618-.6557696-.6264267,0-.2040666.0582412-1.1079172.0729127-1.2973124.0729127-1.7632422.0729127-4.7366573.0729127-5.363084,0-2.3318723-.0440144-2.6670929-.1604968-3.3086356l1.9677535.7873681h2.8271451c-.0146715-.2769793-.0146715-1.5449488-.0288983-1.7930298-.0293429-.2476364-.0729127-.8304933-.349892-1.6174169l2.2736311.451703c.0729127.0146715.1600522.0875841.1600522.1893952,0,.0875841,0,.1747237-.5099442.5246157v2.2447328h3.0898975l.4663745-.7144554c.1311539-.2040666.203622-.2040666.2623078-.2040666.0871396,0,.1893952.0729127.2623078.1311539l1.1074726.8162665c.0875841.0582412.1311539.1164825.1311539.2040666,0,.2040666-.451703.5392872-.5681855.6268713Zm-6.2962775-.5103888h-3.1187959v3.7020974h3.1187959v-3.7020974Zm0,4.0519894h-3.1187959v3.9786321h3.1187959v-3.9786321Zm4.7366573-4.0519894h-3.1917085v3.7020974h3.1917085v-3.7020974Zm0,4.0519894h-3.1917085v3.9786321h3.1917085v-3.9786321Z"/>
          <path class="cls-3" d="m104.0691641,91.1958116h-3.8181353c-.8891791,0-1.2097282.0288983-1.5742917.101811l-.2329649-.5392872c.8745077.0729127,1.9090676.0875841,2.0695645.0875841h1.5591756l.5539586-.8162665c.0729127-.1164825.1600522-.1893952.2329649-.1893952s.1458254.0582412.2623078.1600522l1.0203331.8162665c.0729127.0582412.1458254.1311539.1458254.2187381,0,.1458254-.1311539.1604968-.2187381.1604968Zm-.5975284,5.9899553v1.2679695c0,.3787903.0582412.9909902.0582412,1.3697805,0,.7433538-.8598362.8309379-.9763187.8309379-.4663745,0-.4663745-.4081332-.451703-.699784h-1.5596202c-.0146715.7869235-.0288983,1.3991234-.8891791,1.3991234-.451703,0-.5828569-.2040666-.5828569-.4663745,0-.0875841.0293429-.2916508.0293429-.3787903.0582412-.8162665.0729127-1.9677535.0729127-2.2153898,0-1.5596202-.0729127-2.1713755-.1169271-2.6088516l1.5160504.6704411h1.3844519l.4081332-.5392872c.101811-.1458254.1747237-.2476364.2769793-.2476364.0871396,0,.1893952.0875841.2912062.1600522l.9038506.6268713c.101811.0729127.1600522.1458254.1600522.2334095,0,.1453808-.0582412.1893952-.5246157.5975284Zm-.1164825-4.1684718h-2.4483548c-.8891791,0-1.2097282.0293429-1.5742917.1022556l-.2329649-.5392872c.8887346.0729127,1.9090676.0871396,2.0695645.0871396h.3787903l.5099442-.7429092c.0586858-.0875841.1458254-.1898397.2187381-.1898397.0875841,0,.1604968.0729127.2769793.1604968l.8745077.7433538c.0729127.0582412.1458254.1164825.1458254.2187381,0,.1311539-.1169271.1600522-.2187381.1600522Zm.1164825-3.5998418h-2.5506104c-.8887346,0-1.2092836.0293429-1.5738471.0875841l-.2329649-.5246157c.8740631.0729127,1.9090676.0871396,2.0695645.0871396h.4370316l.5246157-.7869235c.0582412-.0729127.1311539-.1893952.2187381-.1893952.0871396,0,.2040666.1022556.2769793.1604968l.903406.7869235c.0729127.0729127.1458254.1164825.1458254.2187381,0,.1311539-.1164825.1600522-.2187381.1600522Zm-.0435698,5.3635286h-2.4630262c-.8891791,0-1.2097282.0288983-1.5742917.101811l-.2476364-.5392872c.8891791.0729127,1.9237391.0875841,2.0842359.0875841h.3787903l.4810459-.7286823c.0582412-.0875841.1458254-.1751683.2187381-.1751683.0871396,0,.1747237.0729127.2765347.1458254l.9185221.7286823c.0871396.0582412.1458254.1311539.1458254.2187381,0,.1458254-.1315985.1604968-.2187381.1604968Zm-1.3262107,1.9237391h-1.5742917v2.9000578h1.5742917v-2.9000578Zm8.2778133,4.5325907c-1.7779137-.6704411-2.6959912-1.501379-3.2499498-2.0695645-2.0695645,1.7490154-3.9786321,2.0255501-4.5908319,2.1278057l-.0288983-.1022556c1.8943962-.9469758,3.0312117-1.9819803,3.8763765-2.9436276-.8740631-1.3119838-1.0928012-2.5070406-1.1803853-3.104569-.3787903.0146715-.5681855.0440144-.7722521.0875841l-.2334095-.5392872c.8745077.0729127,1.9095122.0875841,2.0695645.0875841h1.9677535l.4370316-.4957174c.1022556-.1164825.1747237-.1747237.2623078-.1747237.0729127,0,.1604968.0729127.2623078.1600522l1.0350045.8598362c.0582412.0586858.1747237.1604968.1747237.2623078,0,.2040666-.2329649.2916508-.7140109.4810459-.4663745.9620918-.9474204,1.6907741-1.6325329,2.404785.699784.4374761,1.7783583.9620918,3.6291847,1.2390711v.1164825c-.2476364.1311539-.9038506.4663745-1.3119838,1.60319Zm.7580252-7.9723802c-.349892.2187381-.7140109.248081-1.5156059.248081-1.0056616,0-1.7343439,0-1.8365995-.801595-.0288983-.3063222-.0435698-2.754677-.0435698-3.1917085v-.1604968h-1.1657139c-.1022556,2.3465438-.7144554,3.8914925-2.6235231,4.8824827l-.0729127-.0729127c1.1074726-1.3262107,1.2386266-3.0169848,1.2386266-4.1391289,0-.801595-.0724681-1.3555536-.1164825-1.7196725l1.6178615.6993394h1.0492314l.451703-.5246157c.0729127-.0729127.1604968-.1747237.248081-.1747237.0871396,0,.1747237.0729127.2623078.1458254l.8451648.6704411c.0875841.0582412.1747237.1453808.1747237.2623078,0,.1311539-.0435698.1747237-.4806013.4806013,0,.3792349-.0146715,1.8219281-.0146715,1.9241837.0146715.1164825.0288983.2476364.2769793.2476364.4952728,0,.5975284-.0729127.6704411-.1311539.2182935-.1893952.3058776-.5103888.6410982-1.7783583h.101811c.0440144.3939064.1898397,1.5302773.3352205,1.7054456.0293429.0435698.3209937.2040666.3939064.2476364.0871396.0440144.1311539.1311539.1311539.2623078,0,.2187381-.1751683.6851125-.5686301.9180775Zm-5.6253919,1.8654979c.4663745,1.4137948,1.2092836,2.1135788,1.4862629,2.3612152.8162665-1.151487,1.0350045-1.8508264,1.1950568-2.3612152h-2.6813197Z"/>
          <path class="cls-3" d="m121.3623647,91.3411924h-4.8242415c-.903406,0-1.2097282.0293429-1.5885185.1022556l-.2334095-.5392872c.8891791.0729127,1.9241837.0875841,2.0842359.0875841h2.7253341l.5392872-.8162665c.0435698-.0729127.1458254-.1893952.2187381-.1893952.101811,0,.1893952.101811.2623078.1600522l.903406.8162665c.0729127.0729127.1458254.1311539.1458254.2187381,0,.1458254-.1311539.1600522-.2329649.1600522Zm-1.0639028,1.7636868h-2.9440722c-.8891791,0-1.2097282.0288983-1.5742917.101811l-.2329649-.5392872c.8891791.0729127,1.9090676.0875841,2.0695645.0875841h.8451648l.5539586-.801595c.0729127-.101811.1164825-.1747237.2187381-.1747237.0871396,0,.2182935.0871396.2765347.1458254l.8745077.801595c.0729127.0582412.1458254.1311539.1458254.2182935,0,.1458254-.1311539.1604968-.2329649.1604968Zm-.0440144-3.5269291h-2.8853863c-.8891791,0-1.2097282.0288983-1.5742917.0871396l-.2329649-.5246157c.8887346.0729127,1.9090676.0875841,2.0695645.0875841h.8451648l.5246157-.801595c.1022556-.1458254.1747237-.1747237.2334095-.1747237.0582412,0,.1893952.0729127.2623078.1458254l.8304933.8011504c.1022556.0875841.1458254.1315985.1458254.2187381,0,.1311539-.1164825.1604968-.2187381.1604968Zm.1604968,5.2901713h-3.0458832c-.8891791,0-1.2097282.0293429-1.5742917.0875841l-.2329649-.5246157c.8887346.0729127,1.9090676.0875841,2.0695645.0875841h.8598362l.5246157-.7726967c.0435698-.0582412.1164825-.1747237.2187381-.1747237.101811,0,.1600522.0582412.2623078.1458254l.9909902.7722521c.0871396.0582412.1458254.1311539.1458254.2187381,0,.1311539-.1169271.1600522-.2187381.1600522Zm.2476364,2.302974c0,.5539586-.0146715,1.0785743.0146715,1.6903296,0,.1751683.0435698.8891791.0435698,1.049676,0,.7140109-.6704411.8451648-.9763187.8451648-.5392872,0-.5246157-.2623078-.4957174-.8309379h-2.1278057c0,.0729127.0146715.4228047.0146715.4957174,0,.2623078-.0435698.8745077-.9763187.8745077-.3205491,0-.5539586-.1022556-.5539586-.4374761,0-.1164825.0435698-.5828569.0435698-.6846679.0293429-.4957174.0293429-1.0785743.0293429-1.5156059,0-1.0056616,0-1.9241837-.1164825-2.9151738l1.6174169.6704411h1.9384105l.4521476-.6121998c.0582412-.0871396.1453808-.2040666.2476364-.2040666.0729127,0,.1458254.0293429.3205491.1898397l.8309379.7140109c.0724681.0729127.1600522.1600522.1600522.2476364,0,.2187381-.3205491.3645635-.4663745.4228047Zm-1.4137948-.4081332h-2.1424772v2.8129182h2.1424772v-2.8129182Zm8.7593038-3.6291847h-2.9147292v3.7750101c0,.553514.1164825,3.0165403.1164825,3.5558274,0,.9914347-.9763187.9914347-1.1074726.9914347-.5686301,0-.5686301-.3792349-.5686301-.6121998,0-1.0785743.0729127-2.8129182.0875841-3.8914925.0142269-1.1368155,0-1.6614312.0142269-3.8185798h-.8158219c-.8891791,0-1.2097282.0293429-1.5742917.1022556l-.2476364-.5392872c.8891791.0729127,1.9237391.0875841,2.0842359.0875841h.553514c-.0142269-1.0932458-.0288983-2.3758867-.0871396-3.2792927-.0582412-.7869235-.1458254-1.1368155-.2334095-1.501379l2.1135788.4521476c.101811.0288983.2912062.0729127.2912062.2623078,0,.2182935-.2769793.3494474-.5975284.4952728-.0288983.5686301-.0288983,3.0605546-.0288983,3.5709435h.8158219l.6268713-.9474204c.0293429-.0435698.1311539-.1893952.2329649-.1893952.0875841,0,.2187381.1164825.2627524.1600522l1.0492314.9474204c.101811.0875841.1458254.1311539.1458254.2187381,0,.1458254-.1169271.1600522-.2187381.1600522Z"/>
          <path class="cls-3" d="m131.5136785,93.0902078l-.1747237-.2623078c.6410982-.5246157.8304933-.8891791.8304933-1.1368155,0-.1893952-.101811-.2187381-.2182935-.2623078-.4081332-.1458254-.699784-.5392872-.699784-.9909902,0-.5392872.451703-1.0492314,1.0492314-1.0492314.4957174,0,1.0639028.3494474,1.0639028,1.1368155,0,.7869235-.6699965,1.7632422-1.8508264,2.5648372Zm2.7835753,0l-.1747237-.2623078c.6557696-.5246157.8309379-.8891791.8309379-1.1368155,0-.1893952-.1022556-.2187381-.2187381-.2623078-.3934618-.1458254-.6851125-.5392872-.6851125-.9909902,0-.5392872.4374761-1.0492314,1.0492314-1.0492314.4810459,0,1.049676.3494474,1.049676,1.1368155,0,.7869235-.6557696,1.7632422-1.851271,2.5648372Z"/>
          <path class="cls-3" d="m150.8359859,91.093556c-1.2243997,0-2.4194565-.0146715-3.4686879.5828569-1.2679695.7144554-2.302974,2.4776977-2.302974,4.1538004,0,2.0113232,2.0406661,2.7253341,3.1917085,2.856488,1.0350045.1164825,1.9095122.2187381,1.9095122,1.1661585,0,.5975284-.4374761.7286823-.8598362.7286823-1.953082,0-5.2177032-1.0932458-5.2177032-4.2849543,0-2.8418166,2.3465438-4.4890209,3.2792927-5.159462-1.2679695.0875841-4.2413845,1.3848965-4.7366573,1.6907741-.5975284.3645635-.7580252.4663745-1.0492314.4663745-.5975284,0-1.5160504-.6704411-1.5160504-1.7196725,0-.5246157.2187381-.9767633.349892-1.0932458.2769793.6557696.5828569,1.0203331,1.2243997,1.0203331,1.0639028,0,7.417977-1.7054456,7.8554532-1.8508264.4223601-.1311539.6704411-.2334095,1.0198885-.2334095.349892,0,1.5160504.2916508,1.5160504,1.0350045,0,.6410982-.5975284.6410982-1.1950568.6410982Zm-.3209937,3.4686879c-.3058776,0-.3494474-.0729127-.7140109-.7722521-.3058776-.5833015-.6704411-.9620918-1.1950568-1.5160504.7140109.1604968,2.4483548.6121998,2.4483548,1.6761027,0,.2187381-.101811.6121998-.5392872.6121998Zm1.7054456-.6557696c-.2916508,0-.3645635-.1164825-.7140109-.7726967-.3934618-.7429092-.8162665-1.0492314-1.2973124-1.3991234.9180775.0586858,2.5212675.5833015,2.5212675,1.5449488,0,.3205491-.2040666.6268713-.5099442.6268713Z"/>
          <path class="cls-3" d="m167.9682451,101.0768149c-6.295833.1604968-8.0737467-.6704411-9.5168844-2.0113232-.9763187,1.2243997-1.9966518,1.8801693-2.8853863,2.3758867l-.0875841-.1022556c1.0639028-.9909902,1.705001-1.8072566,2.2589596-3.0605546-.8598362-1.1221441-1.151487-2.5795087-1.2826409-3.1623656l.1458254-.0729127c.3063222.7433538.699784,1.5591756,1.4720361,2.3901135.4228047-1.1661585.7433538-2.3901135.7580252-3.6434116h-.8745077c-.248081.6699965-.349892.9327489-.9180775.9327489-.1169271,0-.801595-.0146715-.801595-.5250603,0-.0724681.2182935-.6557696.3494474-.9763187.5103888-1.253298,1.0350045-2.5941802,1.3555536-3.7163242h-.5975284c-.801595,0-1.1221441.0582412-1.3555536.101811l-.2329649-.5392872c.8887346.0875841,1.6320883.0875841,1.7490154.0875841h.451703l.4223601-.4081332c.1022556-.101811.1751683-.1893952.2623078-.1893952.0729127,0,.1751683.0729127.2627524.1458254l.8304933.6993394c.0729127.0586858.1893952.1604968.1893952.2623078,0,.2040666-.1747237.3063222-.6121998.4810459-.1747237.4663745-1.0345599,2.7693485-1.2239551,3.2939642h.6410982l.4663745-.4957174c.0729127-.0729127.1604968-.1893952.2334095-.1893952.0871396,0,.1893952.0875841.2912062.1893952l.8456094.7580252c.0729127.0582412.2040666.2040666.2040666.3058776,0,.1604968-.248081.3063222-.4663745.4228047-.2334095,1.2826409-.5103888,2.4776977-1.2826409,3.8185798,1.3697805.9469758,3.2935196,1.2092836,5.0861047,1.2092836,1.4720361,0,3.2503944-.1164825,4.7806717-.3352205l.0729127.1315985c-.8598362.6846679-.9620918,1.3115392-.9914347,1.8214835Zm.9327489-9.2834749h-1.8654979c0,.3641189.0293429,1.9966518-.0142269,2.1131342-.1311539.3641189-.699784.3641189-.801595.3641189-.4081332,0-.5392872-.2040666-.5392872-.553514h-1.2973124v1.4720361h1.7054456l.5392872-.801595c.0729127-.1022556.1311539-.1898397.2182935-.1898397.0875841,0,.2187381.1169271.2769793.1604968l.9038506.801595c.0729127.0582412.1453808.1311539.1453808.2187381,0,.1600522-.1311539.1600522-.2182935.1600522h-3.5709435l-.0142269,1.60319h2.0108786l.6268713-.8598362c.101811-.1311539.1604968-.1893952.2187381-.1893952.0729127,0,.1311539.0435698.2769793.1604968l.9909902.8598362c.0582412.0435698.1453808.1164825.1453808.2182935,0,.1458254-.1453808.1604968-.2182935.1604968h-4.0515448c0,.4228047-.0146715,1.1368155-.0729127,1.2826409-.0440144.1164825-.2916508.4370316-.7726967.4370316-.6704411,0-.7140109-.2912062-.7140109-.5975284,0-.1600522.0293429-.9474204.0293429-1.1221441h-.801595c-1.0203331,0-1.2973124.0435698-1.5742917.0875841l-.2912062-.5246157c.6846679.0582412,1.3844519.0871396,2.0837913.0871396h.5975284l.0293429-1.60319h-.4374761c-1.0056616,0-1.2821963.0582412-1.5738471.1022556l-.2329649-.5392872c.7575806.0729127,1.5302773.0875841,2.2442882.0875841.0146715-.4810459.0288983-1.3702251.0288983-1.4720361h-.2765347c-1.0056616,0-1.2826409.0582412-1.5742917.101811l-.2329649-.5392872c.9909902.0875841,1.9819803.0875841,2.0837913.0875841l-.0142269-1.5738471h-1.3262107c-1.0056616,0-1.2973124.0582412-1.5742917.101811l-.2329649-.5392872c.6846679.0729127,1.3697805.0875841,2.0695521.0875841h1.0639152v-1.5742917h-.3209937c-1.005217,0-1.2821963.0586858-1.5738471.1022556l-.2329649-.5392872c.9616472.0875841,1.9090676.0875841,2.1131342.101811,0-.5388426-.0435698-1.0345599-.2187381-1.5445042l1.8508264.3934618c.0875841.0146715.2916508.0729127.2916508.2329649,0,.1022556-.0435698.1893952-.3645635.3645635-.0142269.1747237-.0142269.3205491-.0142269.5392872h1.2097282l.4223601-.4957174c.0582412-.0729127.1458254-.1747237.2040666-.1747237.0729127,0,.1604968.0871396.2334095.1311539l.8304933.5975284c.1311539.0871396.2040666.2040666.2040666.2912062,0,.1751683-.1604968.3063222-.4957174.5250603-.0142269.1311539,0,.8887346,0,1.0492314h.248081l.4810459-.7144554c.0724681-.101811.1453808-.1893952.2329649-.1893952.0729127,0,.1893952.0875841.2623078.1604968l.7140109.7140109c.0875841.0875841.1458254.1458254.1458254.2334095,0,.1458254-.1458254.1458254-.2187381.1458254Zm-3.2206069,0h-1.2826409v1.5738471h1.2826409v-1.5738471Zm0-1.9241837h-1.2679695v1.5742917h1.2679695v-1.5742917Z"/>
          <path class="cls-3" d="m174.3601094,91.5163607c.9469758,0,7.2139104-1.6761027,7.3597358-1.7201171.8891791-.2765347,1.2679695-.3934618,1.501379-.3934618.7286823,0,1.5591756.4228047,1.5591756,1.0350045,0,.6264267-.5099442.6410982-1.3555536.6410982-2.1131342.0146715-2.7689039.3063222-3.2206069.5686301-1.4720361.8745077-2.404785,2.5501658-2.404785,4.0662162,0,1.4862629,1.0056616,2.6813197,3.2499498,2.9294007.8745077.0871396,1.8948408.2040666,1.8948408,1.2097282,0,.7140109-.6268713.7140109-.9038506.7140109s-5.1736889-.2769793-5.1736889-4.3138526c0-2.4776977,1.8943962-4.2120416,3.2499498-5.1301191-1.4280217.1453808-3.9497338,1.253298-4.7948986,1.7779137-.5392872.3205491-.6851125.4081332-1.0056616.4081332-.5681855,0-1.4862629-.6415428-1.4862629-1.7636868,0-.5681855.203622-.8598362.3347759-1.0492314.3792349.903406.7580252,1.0203331,1.1955014,1.0203331Z"/>
          <path class="cls-3" d="m195.7337532,100.5521992c-1.6325329,0-3.0605546-.6993394-3.0605546-1.9384105,0-1.0492314,1.1510424-1.5009344,1.9090676-1.5009344.6851125,0,1.8948408.3787903,2.2300613,1.9526374.8887346-.2182935,1.6320883-1.3262107,1.6320883-2.4483548,0-1.0785743-.6993394-2.0984628-2.0984628-2.0984628-2.6235231,0-4.1249021,2.3025294-4.9118256,3.5122576-.1747237.2769793-.4370316.6851125-.801595.6851125-.451703,0-.6704411-.4957174-.6704411-.9474204,0-.5686301.3209937-.8891791,1.0785743-1.6325329.6268713-.6117553.9620918-1.0345599,3.5416005-4.2556114.4810459-.5975284,1.0639028-1.3262107,1.2386266-1.6174169.0440144-.0586858.0729127-.1458254.0729127-.1898397,0-.0582412-.0288983-.1164825-.1311539-.1164825-.2769793,0-2.2296167,1.0492314-2.3172009,1.1221441-.2329649.1751683-.3641189.2623078-.5539586.2623078-.5392872,0-1.3115392-.553514-1.3115392-1.4280217,0-.3205491.1164825-.6704411.2916508-.9180775.3058776.5246157.5392872.8158219,1.1074726.8158219.7433538,0,2.2300613-.4806013,2.6524214-.6410982.1311539-.0435698.6121998-.2334095.7144554-.2334095.5828569,0,1.4573646.7144554,1.4573646,1.1808299,0,.3641189-.1311539.451703-.8745077.9616472-.5392872.3645635-3.104569,2.9151738-3.6438561,3.8914925.8745077-.451703,1.9095122-.9474204,3.3522054-.9474204,2.6670929,0,3.4251181,1.8365995,3.4251181,2.8858309,0,1.6614312-1.5302773,3.6434116-4.3285241,3.6434116Zm-1.7196725-2.7106626c-.2769793,0-.699784.1893952-.699784.6264267,0,.8456094,1.5738471,1.0785743,1.8948408,1.0785743.2476364,0,.3494474-.0288983.4952728-.0582412-.3787903-1.3697805-1.3262107-1.6467598-1.6903296-1.6467598Z"/>
          <path class="cls-3" d="m217.7631665,91.5892734c-.0875841,0-.8451648.0142269-1.0056616.0142269-.6121998.3792349-.9616472.5686301-1.4280217.801595l-.0875841-.0871396c.1893952-.5833015.3205491-1.0350045.451703-1.6472044h-8.1471039c.1604968,1.5449488-.5975284,2.5359389-1.4426932,2.5359389-.4952728,0-.8304933-.3641189-.8304933-.7722521,0-.3787903.1600522-.5246157.9469758-1.2097282.5833015-.5099442.8162665-.9474204.9327489-1.705001h.1169271c.1164825.3058776.1600522.4806013.2329649.801595h3.3228625c.0293429-1.2679695-.1311539-1.7343439-.3058776-2.2447328l2.0402216.4374761c.1022556.0288983.2334095.0582412.2334095.2040666,0,.0729127-.0440144.1747237-.1022556.2182935-.0582412.0440144-.2912062.2187381-.3352205.248081-.0146715.1893952-.0146715.9763187-.0146715,1.1368155h3.2646212l.4663745-.5103888c.1169271-.1311539.2334095-.2040666.3063222-.2040666.101811,0,.1458254.0293429.2916508.1751683l1.2386266,1.2097282c.0875841.0871396.1458254.2040666.1458254.3205491,0,.2040666-.1751683.2769793-.2916508.2769793Zm-.1747237,9.0651814c-.6557696.4223601-2.404785.4223601-3.1334673.4223601-2.7253341,0-3.8768211,0-4.1244575-1.151487-.1022556-.5099442-.0875841-2.4336833-.0875841-3.1041244l-3.1041244.5539586c-.7433538.1311539-1.0932458.2040666-1.5302773.3641189l-.3209937-.4810459c.5103888-.0435698,1.5302773-.1747237,2.0695645-.2623078l2.9005024-.5099442c0-1.0639028,0-1.1803853.0146715-2.3318723-1.4867075.4228047-3.0169848.7140109-4.5619336.7726967l-.0293429-.1169271c3.8039084-1.0492314,6.8355647-2.8129182,7.4184216-3.6434116l1.5596202,1.1950568c.0871396.0582412.1164825.1604968.1164825.2329649,0,.2334095-.2623078.2334095-.8309379.2187381-.5099442.2334095-1.1074726.4957174-2.1713755.8745077-.0146715,1.2243997-.0146715,1.3555536-.0293429,2.5359389l3.7750101-.6557696.6264267-1.1368155c.1022556-.1893952.1458254-.2187381.2334095-.2187381.0729127,0,.2040666.0875841.2623078.1164825l1.253298.7580252c.1022556.0582412.1893952.1164825.1893952.2187381,0,.1164825-.0871396.1458254-.1893952.1600522l-6.164679,1.0932458c0,.5246157,0,2.3465438.101811,2.6524214.1311539.3792349.7869235.3792349,1.6907741.3792349.6410982,0,2.3318723.0142269,2.7106626-.2334095.4374761-.2769793.5828569-1.0492314.8598362-2.3612152h.1164825c.2334095,1.2973124.349892,1.9966518.6121998,2.2007184.2769793.2040666.3498783.2623078.3498783.4957174,0,.3934618-.2769656.7580252-.5828432.9620918Z"/>
          <path class="cls-3" d="m233.4238343,100.8727483c-.4228047.1311539-.9474204.1311539-2.6817643.1311539-2.6959912,0-3.308191,0-3.7456672-.5681855-.2912062-.3934618-.2912062-.6415428-.2765347-2.8858309-1.3702251.9620918-2.4341279,1.6325329-3.8185798,2.404785-.1164825.3352205-.2040666.5099442-.3645635.5099442-.1164825,0-.1893952-.1164825-.2623078-.2476364l-.9763187-1.7196725c.3352205.0288983.6557696.0582412,2.0989074-.2769793.0142269-1.6761027.0288983-3.3522054.0288983-5.0278635-1.0639028,0-1.3408822.0288983-1.7343439.101811l-.2476364-.5392872c.349892.0293429,1.5591756.0729127,1.9819803.0875841v-1.9384105c0-1.2826409-.0729127-1.7779137-.1604968-2.302974l1.7783583.5103888c.2187381.0582412.3352205.1164825.3352205.2769793,0,.1311539-.0875841.2329649-.5246157.4806013-.0146715.5103888-.0146715,2.3176454-.0146715,2.9734151h.0288983l.4521476-.699784c.0871396-.1311539.1453808-.1893952.2182935-.1893952.0875841,0,.1751683.0582412.2623078.1604968l.5975284.6846679c.0729127.0875841.1315985.1898397.1315985.2627524,0,.101811-.1315985.1311539-.2187381.1311539h-1.4720361v4.6637446c.3205491-.0875841.801595-.2187381,1.8801693-.5686301.0142269-2.1571486.0142269-2.3901135.0142269-3.0169848-.5975284.248081-.9327489.4081332-1.2679695.6268713l-.4223601-.4081332c.6264267-.1893952.8162665-.2623078,1.6903296-.5975284,0-2.4923691,0-3.1334673-.1453808-4.1538004l1.60319.4521476c.2040666.0582412.3641189.1311539.3641189.2623078,0,.2182935-.2769793.3787903-.451703.4806013,0,.1022556-.0146715,1.8948408-.0293429,2.404785l1.1808299-.4806013c.0142269-2.5652818.0142269-3.6438561-.1751683-4.6055034l1.6467598.4370316c.2627524.0729127.3792349.1164825.3792349.2476364,0,.1169271-.1022556.2623078-.4663745.4810459,0,.4081332,0,2.4194565-.0146715,2.8711595l1.0492314-.4228047.3934618-.7722521c.0729127-.1458254.1458254-.2476364.2334095-.2476364.0729127,0,.1893952.0435698.3352205.1458254l1.0203331.6846679c.1164825.0729127.1747237.1458254.1747237.2623078,0,.2187381-.2916508.4521476-.3934618.5392872,0,.3645635.0146715,2.1135788.0146715,2.5070406,0,1.4280217,0,2.7689039-2.0553376,3.0894529-.0142269-.4081332-.0142269-.9327489-.7140109-1.5738471,0,.1164825.0293429,1.1074726.0293429,1.151487,0,.2040666,0,1.0345599-.9185221,1.0345599-.5828569,0-.5828569-.5246157-.5828569-.7869235,0-.6704411.0440144-3.9203909.0440144-4.6637446l-1.1808299.4810459v.9469758c0,.4663745.0146715,3.2210515.0146715,3.8185798,0,.6268713,0,.9763187.3645635,1.0639028.2182935.0440144.4663745.0582412,2.7106626.0582412.6851125,0,1.2826409-.0288983,1.60319-.2912062.3641189-.3063222.7140109-1.3991234.801595-1.851271h.1164825c.1747237,1.6325329.3063222,1.7343439.4810459,1.9095122.2187381.1893952.3352205.3205491.3352205.4370316,0,.349892-.3645635.8309379-1.0785743,1.0639028Zm-2.7835753-8.2053452c0,.5833015.0288983,3.1481388.0435698,3.6727545,1.0492314.0293429,1.1661585.0293429,1.2390711-.5975284.0582412-.4081332.0288983-2.9729705.0288983-3.6140686l-1.3115392.5388426Z"/>
          <path class="cls-3" d="m242.3805358,90.3066325c-.9185221,1.9090676-2.7982468,3.9203909-4.6348463,4.911381l-.0729127-.0875841c2.4487994-2.9876419,3.2357229-5.6547348,3.3375339-6.4416583l1.8072566.9909902c.1458254.0875841.2040666.1604968.2040666.2623078,0,.1311539-.1458254.2187381-.6410982.3645635Zm5.3777555,4.6637446c-.1164825,5.4800111-.9327489,6.1357807-3.3957752,6.4416583-.1022556-1.1368155-.7286823-1.6178615-1.253298-2.0255501l.0142269-.1022556c.4957174.1022556,1.1079172.2187381,1.6178615.2187381.8162665,0,1.0492314-.1458254,1.2826409-1.501379.1893952-1.1074726.2476364-3.0165403.2329649-3.7309957h-2.4043404c-.1458254,3.1192404-2.1135788,6.3251759-5.9463855,7.0396313l-.0293429-.1022556c2.6381945-1.3991234,4.1826987-3.5998418,4.3285241-6.9373757h-.3058776c-.8891791,0-1.2097282.0440144-1.5742917.1022556l-.2329649-.5392872c.8891791.0875841,1.9090676.0875841,2.0695645.0875841h3.9639606l.4521476-.4521476c.101811-.101811.1893952-.1600522.2765347-.1600522.0875841,0,.1311539.0435698.2334095.1311539l.9474204.8304933c.1164825.1022556.1600522.1751683.1600522.2623078,0,.0875841-.0435698.1898397-.4370316.4374761Zm2.156704-.1164825c-1.1510424-.5539586-3.2788481-2.0695645-4.2991812-5.5675952h-.9474204c-.8887489,0-1.2097282.0440144-1.5738471.1022556l-.2334095-.5392872c.8891791.0871396,1.9095122.0871396,2.0695645.0871396h.2623078l.5250603-.6410982c.0871396-.101811.1747237-.1893952.2623078-.1893952.0871396,0,.1747237.0729127.2765347.1600522l.7286823.6415428c.0875841.0875841.1458254.1600522.1458254.2476364,0,.2334095-.5099442.3787903-.903406.4957174.8162665,1.6320883,3.0169848,3.1770371,5.1447905,3.5704989l.0142269.1458254c-.9180775.349892-1.2821963,1.1074726-1.4720361,1.4867075Z"/>
          <path class="cls-3" d="m258.8863683,91.3411924h-2.9876419c-.8891791,0-1.2097282.0293429-1.5742917.1022556l-.2329649-.5392872c.8887346.0729127,1.9090676.0875841,2.0695645.0875841h1.1074726l.4810459-.6704411c.0875841-.1169271.1458254-.1898397.2187381-.1898397.0871396,0,.1747237.0729127.2623078.1604968l.7286823.6704411c.1164825.101811.1458254.1604968.1458254.2187381,0,.1311539-.1169271.1600522-.2187381.1600522Zm7.417977,9.9543606c-1.4573646-.7722521-1.937966-1.5449488-2.3025294-2.1718201-.2187381.1604968-.4370316.3209937-.7869235.5392872-.4228047.248081-2.2442882,1.2097282-2.7106626,1.4431378-.1169271.349892-.1751683.3934618-.2916508.3934618-.1022556,0-.1893952-.0875841-.2476364-.1893952l-.9038506-1.60319c.1604968.0288983.3934618.0435698.4957174.0435698.2623078,0,.9180775-.0729127,1.2097282-.1164825v-1.3408822c-1.1368155.6268713-1.7925852.8304933-2.2153898.9474204,0,.1164825.0146715.6557696.0146715.7575806,0,.5833015-.4521476.7726967-.801595.7726967-.2187381,0-.5392872-.0729127-.5392872-.3934618,0-.0440144.0146715-.2623078.0146715-.3209937h-1.2097282c.0435698.7144554,0,1.2679695-.8162665,1.2679695-.0435698,0-.5828569,0-.5828569-.4806013,0-.1022556.0288983-.5103888.0288983-.5975284.0146715-.6704411.0293429-1.3262107.0293429-2.2883025,0-.8309379,0-1.5449488-.1022556-2.0402216l1.5889631.6846679h.9616472l.451703-.5975284c.0582412-.0729127.1169271-.1311539.2040666-.1311539.0875841,0,.1458254.0729127.1893952.1022556l.8598362.7286823c.0875841.0729127.1315985.1311539.1315985.2040666,0,.1311539-.1315985.2329649-.4521476.4952728.0146715.2623078.0146715,1.3848965.0146715,1.60319.9038506-.6121998,2.0402216-1.6614312,2.5652818-2.3901135h-.4374761c-.8891791,0-1.2097282.0293429-1.5738471.1022556l-.2334095-.5392872c.8162665.0729127,1.7054456.0871396,2.2589596.0871396v-1.3262107c-.3787903,0-.7575806.0146715-1.2821963.1022556l-.248081-.5392872c.2623078.0288983.801595.0729127,1.5302773.0875841v-1.0785743c-.6557696,0-1.0928012,0-1.6174169.101811l-.248081-.5392872c.7286823.0582412,1.1808299.0729127,1.8654979.0875841-.0142269-.6557696-.0142269-.7286823-.1311539-1.3408822-.8598362.349892-1.6174169.5828569-2.2007184.7433538v-.1022556c1.6907741-1.2968678,2.0113232-1.7485708,2.3465438-2.3025294-.8887346,0-1.2239551.0293429-1.6467598.1022556l-.2476364-.5392872c.7286823.0724681,1.8214835.0871396,2.0837913.0871396h.8745077c-.0146715-1.0056616-.0288983-1.2386266-.2187381-1.6903296l1.8801693.3494474c.1751683.0293429.2769793.1169271.2769793.248081,0,.1453808-.101811.2182935-.451703.4081332v.6846679h1.3844519l.5686301-.7140109c.101811-.1311539.1600522-.1747237.2329649-.1747237s.1604968.0435698.2769793.1453808l.9180775.7144554c.0875841.0582412.1458254.1458254.1458254.2329649,0,.1311539-.1164825.1458254-.2187381.1458254h-5.4653396l.8598362.6704411c.1311539.101811.2040666.1893952.2040666.2916508,0,.1600522-.1893952.1747237-.553514.1747237-.3063222.1893952-.5103888.2916508-.8309379.4228047l1.2679695.3058776c.1893952.0435698.2916508.0875841.2916508.2040666,0,.1458254-.2187381.2916508-.349892.4081332-.0146715.1164825-.0146715.1600522-.0146715.5246157h1.0492314c-.0142269-.3787903-.0435698-1.0345599-.101811-1.501379l1.4573646.349892c.1604968.0440144.2769793.0582412.2769793.2040666,0,.1022556-.0582412.1751683-.3352205.3787903-.0146715.3645635-.0146715.3939064-.0146715.5686301h.5828569l.3934618-.7286823c.0293429-.0582412.0586858-.1022556.1022556-.1311539-.3352205-.1604968-.699784-.6557696-.9763187-.9038506-.6851125-.6557696-.7873681-.7140109-1.151487-.8598362l.0146715-.0871396c.8451648,0,3.1623656.2476364,3.1623656,1.3262107,0,.1747237-.1458254.553514-.6121998.6264267l.6851125.7286823c.1022556.1022556.1458254.1751683.1458254.2187381,0,.1311539-.1311539.1604968-.2187381.1604968h-2.1278057v1.0785743h.4663745l.3787903-.5539586c.0875841-.1311539.1604968-.1893952.2334095-.1893952s.1747237.101811.2623078.1600522l.699784.5539586c.101811.0729127.1453808.1604968.1453808.2329649,0,.1315985-.1164825.1458254-.2182935.1458254h-1.9677535c0,.2187381,0,1.1368155.0146715,1.3262107h.7433538l.5099442-.7429092c.0729127-.1169271.1458254-.1751683.2334095-.1751683.0871396,0,.2040666.1022556.2623078.1604968l.7286823.7286823c.101811.101811.1311539.1458254.1311539.2187381,0,.1453808-.1311539.1600522-.2187381.1600522h-1.5738471l1.1950568.8309379c.1747237.1164825.2182935.1893952.2182935.2769793,0,.0871396-.0871396.2476364-.3205491.2476364-.0729127,0-.1311539-.0146715-.2912062-.0440144-.7144554.2623078-1.151487.4081332-1.7054456.5250603.5103888.4370316,1.5596202,1.2239551,3.0023134,1.4715915v.0875841c-.6993394.2916508-.8745077.5103888-1.3555536,1.2826409Zm-7.8843515-8.1324325h-1.8948408c-.8887346,0-1.2097282.0435698-1.5738471.101811l-.2476364-.5388426c.7575806.0724681,1.5885185.0871396,2.1131342.0871396l.4952728-.6704411c.0875841-.1164825.1604968-.1893952.248081-.1893952.0729127,0,.1458254.0729127.2476364.1604968l.6851125.6704411c.101811.0871396.1458254.1600522.1458254.2182935,0,.0875841-.0440144.1604968-.2187381.1604968Zm.101811-3.6291847h-1.9819803c-.8891791,0-1.2097282.0293429-1.5738471.1022556l-.2334095-.5392872c.7140109.0582412,1.501379.0875841,2.1424772.0875841l.4228047-.6704411c.0582412-.1022556.1311539-.1751683.2182935-.1751683.0729127,0,.1604968.0586858.2769793.1458254l.801595.6704411c.0729127.0582412.1458254.1458254.1458254.2187381,0,.1311539-.1311539.1600522-.2187381.1600522Zm-.0871396,5.5240255h-1.8948408c-.8891791,0-1.2097282.0435698-1.5738471.101811l-.2334095-.5392872c.7433538.0729127,1.5596202.0875841,2.1131342.0875841l.4374761-.6704411c.0582412-.1022556.1604968-.1751683.2187381-.1751683.101811,0,.2182935.0875841.2765347.1458254l.7291269.6704411c.1164825.1022556.1453808.1604968.1453808.2334095,0,.1311539-.1164825.1458254-.2182935.1458254Zm-1.1950568,1.8943962h-1.2243997v2.754677h1.2243997v-2.754677Zm5.7858887-.3352205h-.0293429c-.2912062.3063222-.5539586.5392872-.9180775.8162665v2.0113232c.3641189-.0582412,1.253298-.2334095,1.8361549-.4521476-.1600522-.3058776-.5392872-1.005217-.8887346-2.3754421Zm.4223601-3.1041244h-1.0492314v1.0785743h1.0492314v-1.0785743Zm.0146715,1.4280217h-1.0639028v1.3262107h1.0639028v-1.3262107Zm-.2476364,1.6761027c.1164825.2334095.3934618.8309379,1.1221441,1.5449488.2187381-.2769793.7722521-.9763187,1.0203331-1.5449488h-2.1424772Z"/>
        </g>
      </g>
      <rect class="cls-2" width="325" height="110"/>
    </g>
  </g>
</svg>